<?xml version="1.0" encoding="UTF-8"?>
<svg xmlns="http://www.w3.org/2000/svg" xmlns:xlink="http://www.w3.org/1999/xlink" width="295pt" height="47pt" viewBox="76 37 295 47" version="1.2">
<defs>
<g>
<symbol overflow="visible" id="glyph0-0">
<path style="stroke:none;" d="M 1.890625 0 L 1.890625 -11.328125 L 13.203125 -11.328125 L 13.203125 0 Z M 2.828125 -0.9375 L 12.265625 -0.9375 L 12.265625 -10.375 L 2.828125 -10.375 Z M 2.828125 -0.9375 "/>
</symbol>
<symbol overflow="visible" id="glyph0-1">
<path style="stroke:none;" d="M 6.6875 -10.625 C 6.6875 -10.425781 6.550781 -10.007812 6.28125 -9.375 C 6.007812 -8.75 5.710938 -8 5.390625 -7.125 L 4.9375 -7.125 C 4.957031 -7.957031 4.96875 -8.664062 4.96875 -9.25 C 4.96875 -9.832031 4.988281 -10.226562 5.03125 -10.4375 C 5.070312 -10.664062 5.179688 -10.859375 5.359375 -11.015625 C 5.535156 -11.179688 5.753906 -11.265625 6.015625 -11.265625 C 6.242188 -11.265625 6.410156 -11.203125 6.515625 -11.078125 C 6.628906 -10.953125 6.6875 -10.800781 6.6875 -10.625 Z M 3.921875 -10.625 C 3.921875 -10.425781 3.785156 -10.007812 3.515625 -9.375 C 3.242188 -8.75 2.941406 -8 2.609375 -7.125 L 2.171875 -7.125 C 2.191406 -7.957031 2.203125 -8.664062 2.203125 -9.25 C 2.203125 -9.832031 2.222656 -10.226562 2.265625 -10.4375 C 2.304688 -10.664062 2.414062 -10.859375 2.59375 -11.015625 C 2.769531 -11.179688 2.988281 -11.265625 3.25 -11.265625 C 3.476562 -11.265625 3.644531 -11.203125 3.75 -11.078125 C 3.863281 -10.953125 3.921875 -10.800781 3.921875 -10.625 Z M 3.921875 -10.625 "/>
</symbol>
<symbol overflow="visible" id="glyph0-2">
<path style="stroke:none;" d="M 10.71875 -10.453125 L 10.0625 -7.625 L 9.5625 -7.625 C 9.550781 -7.789062 9.523438 -8.003906 9.484375 -8.265625 C 9.441406 -8.535156 9.382812 -8.773438 9.3125 -8.984375 C 9.226562 -9.210938 9.117188 -9.40625 8.984375 -9.5625 C 8.847656 -9.726562 8.6875 -9.828125 8.5 -9.859375 C 8.351562 -9.878906 8.164062 -9.894531 7.9375 -9.90625 C 7.707031 -9.914062 7.492188 -9.921875 7.296875 -9.921875 L 6.828125 -9.921875 L 4.890625 -1.484375 C 4.878906 -1.441406 4.867188 -1.394531 4.859375 -1.34375 C 4.859375 -1.300781 4.859375 -1.257812 4.859375 -1.21875 C 4.859375 -1.101562 4.878906 -1.003906 4.921875 -0.921875 C 4.960938 -0.847656 5.046875 -0.78125 5.171875 -0.71875 C 5.273438 -0.675781 5.453125 -0.628906 5.703125 -0.578125 C 5.960938 -0.523438 6.175781 -0.492188 6.34375 -0.484375 L 6.21875 0 L 1.28125 0 L 1.40625 -0.484375 C 1.550781 -0.492188 1.765625 -0.515625 2.046875 -0.546875 C 2.328125 -0.578125 2.53125 -0.613281 2.65625 -0.65625 C 2.851562 -0.726562 3 -0.828125 3.09375 -0.953125 C 3.195312 -1.085938 3.265625 -1.242188 3.296875 -1.421875 L 5.265625 -9.921875 L 4.875 -9.921875 C 4.726562 -9.921875 4.539062 -9.914062 4.3125 -9.90625 C 4.09375 -9.894531 3.867188 -9.878906 3.640625 -9.859375 C 3.472656 -9.835938 3.28125 -9.738281 3.0625 -9.5625 C 2.851562 -9.394531 2.640625 -9.191406 2.421875 -8.953125 C 2.210938 -8.722656 2.023438 -8.488281 1.859375 -8.25 C 1.691406 -8.007812 1.5625 -7.800781 1.46875 -7.625 L 0.953125 -7.625 L 1.609375 -10.453125 Z M 10.71875 -10.453125 "/>
</symbol>
<symbol overflow="visible" id="glyph0-3">
<path style="stroke:none;" d="M 8.0625 -0.859375 L 7.953125 -0.390625 C 7.503906 -0.210938 7.15625 -0.0820312 6.90625 0 C 6.664062 0.0820312 6.421875 0.125 6.171875 0.125 C 5.785156 0.125 5.492188 0.0234375 5.296875 -0.171875 C 5.097656 -0.378906 5 -0.632812 5 -0.9375 C 5 -1.039062 5.007812 -1.15625 5.03125 -1.28125 C 5.050781 -1.414062 5.082031 -1.570312 5.125 -1.75 L 5.84375 -4.5 C 5.894531 -4.707031 5.9375 -4.894531 5.96875 -5.0625 C 6 -5.238281 6.015625 -5.378906 6.015625 -5.484375 C 6.015625 -5.816406 5.9375 -6.078125 5.78125 -6.265625 C 5.625 -6.460938 5.390625 -6.5625 5.078125 -6.5625 C 4.765625 -6.5625 4.425781 -6.457031 4.0625 -6.25 C 3.695312 -6.050781 3.347656 -5.769531 3.015625 -5.40625 L 1.78125 0 L 0.40625 0 L 2.59375 -9.484375 C 2.613281 -9.597656 2.632812 -9.691406 2.65625 -9.765625 C 2.675781 -9.847656 2.6875 -9.929688 2.6875 -10.015625 C 2.6875 -10.191406 2.65625 -10.328125 2.59375 -10.421875 C 2.53125 -10.523438 2.445312 -10.601562 2.34375 -10.65625 C 2.25 -10.695312 2.117188 -10.722656 1.953125 -10.734375 C 1.796875 -10.753906 1.632812 -10.773438 1.46875 -10.796875 L 1.578125 -11.234375 L 4.3125 -11.40625 L 4.390625 -11.296875 L 3.203125 -6.203125 L 3.234375 -6.203125 C 3.742188 -6.609375 4.195312 -6.914062 4.59375 -7.125 C 4.988281 -7.332031 5.441406 -7.4375 5.953125 -7.4375 C 6.421875 -7.4375 6.785156 -7.300781 7.046875 -7.03125 C 7.316406 -6.757812 7.453125 -6.398438 7.453125 -5.953125 C 7.453125 -5.867188 7.4375 -5.710938 7.40625 -5.484375 C 7.382812 -5.253906 7.34375 -5.03125 7.28125 -4.8125 L 6.65625 -2.453125 C 6.625 -2.296875 6.582031 -2.113281 6.53125 -1.90625 C 6.488281 -1.695312 6.46875 -1.539062 6.46875 -1.4375 C 6.46875 -1.15625 6.53125 -0.960938 6.65625 -0.859375 C 6.78125 -0.753906 6.984375 -0.703125 7.265625 -0.703125 C 7.359375 -0.703125 7.488281 -0.71875 7.65625 -0.75 C 7.832031 -0.78125 7.96875 -0.816406 8.0625 -0.859375 Z M 8.0625 -0.859375 "/>
</symbol>
<symbol overflow="visible" id="glyph0-4">
<path style="stroke:none;" d="M 6.828125 -5.90625 C 6.828125 -5.382812 6.660156 -4.9375 6.328125 -4.5625 C 6.003906 -4.1875 5.53125 -3.890625 4.90625 -3.671875 C 4.445312 -3.503906 3.984375 -3.367188 3.515625 -3.265625 C 3.054688 -3.160156 2.539062 -3.070312 1.96875 -3 C 1.96875 -2.226562 2.113281 -1.632812 2.40625 -1.21875 C 2.695312 -0.8125 3.117188 -0.609375 3.671875 -0.609375 C 4.160156 -0.609375 4.59375 -0.726562 4.96875 -0.96875 C 5.34375 -1.21875 5.710938 -1.585938 6.078125 -2.078125 L 6.5 -1.765625 C 6.101562 -1.171875 5.609375 -0.691406 5.015625 -0.328125 C 4.429688 0.0234375 3.820312 0.203125 3.1875 0.203125 C 2.320312 0.203125 1.660156 -0.0351562 1.203125 -0.515625 C 0.742188 -1.003906 0.515625 -1.695312 0.515625 -2.59375 C 0.515625 -3.207031 0.609375 -3.796875 0.796875 -4.359375 C 0.992188 -4.921875 1.28125 -5.4375 1.65625 -5.90625 C 2.019531 -6.363281 2.460938 -6.734375 2.984375 -7.015625 C 3.515625 -7.296875 4.097656 -7.4375 4.734375 -7.4375 C 5.441406 -7.4375 5.96875 -7.289062 6.3125 -7 C 6.65625 -6.71875 6.828125 -6.351562 6.828125 -5.90625 Z M 5.46875 -6.09375 C 5.46875 -6.28125 5.441406 -6.425781 5.390625 -6.53125 C 5.335938 -6.644531 5.269531 -6.726562 5.1875 -6.78125 C 5.09375 -6.84375 4.992188 -6.878906 4.890625 -6.890625 C 4.796875 -6.910156 4.695312 -6.921875 4.59375 -6.921875 C 4.007812 -6.921875 3.46875 -6.59375 2.96875 -5.9375 C 2.46875 -5.289062 2.148438 -4.484375 2.015625 -3.515625 C 2.359375 -3.566406 2.742188 -3.640625 3.171875 -3.734375 C 3.609375 -3.828125 3.972656 -3.945312 4.265625 -4.09375 C 4.671875 -4.300781 4.972656 -4.570312 5.171875 -4.90625 C 5.367188 -5.238281 5.46875 -5.632812 5.46875 -6.09375 Z M 5.46875 -6.09375 "/>
</symbol>
<symbol overflow="visible" id="glyph0-5">
<path style="stroke:none;" d=""/>
</symbol>
<symbol overflow="visible" id="glyph0-6">
<path style="stroke:none;" d="M 3.28125 0.203125 C 2.414062 0.203125 1.734375 -0.046875 1.234375 -0.546875 C 0.742188 -1.046875 0.5 -1.757812 0.5 -2.6875 C 0.5 -3.300781 0.59375 -3.890625 0.78125 -4.453125 C 0.96875 -5.015625 1.226562 -5.515625 1.5625 -5.953125 C 1.90625 -6.390625 2.335938 -6.742188 2.859375 -7.015625 C 3.378906 -7.296875 3.953125 -7.4375 4.578125 -7.4375 C 5.285156 -7.4375 5.820312 -7.285156 6.1875 -6.984375 C 6.550781 -6.691406 6.734375 -6.316406 6.734375 -5.859375 C 6.734375 -5.523438 6.648438 -5.226562 6.484375 -4.96875 C 6.328125 -4.71875 6.09375 -4.59375 5.78125 -4.59375 C 5.507812 -4.59375 5.304688 -4.65625 5.171875 -4.78125 C 5.046875 -4.914062 4.984375 -5.066406 4.984375 -5.234375 C 4.984375 -5.390625 5.035156 -5.601562 5.140625 -5.875 C 5.253906 -6.144531 5.34375 -6.363281 5.40625 -6.53125 C 5.351562 -6.664062 5.234375 -6.765625 5.046875 -6.828125 C 4.859375 -6.890625 4.660156 -6.921875 4.453125 -6.921875 C 3.785156 -6.921875 3.207031 -6.53125 2.71875 -5.75 C 2.238281 -4.96875 2 -4.015625 2 -2.890625 C 2 -2.191406 2.15625 -1.632812 2.46875 -1.21875 C 2.78125 -0.8125 3.203125 -0.609375 3.734375 -0.609375 C 4.210938 -0.609375 4.632812 -0.734375 5 -0.984375 C 5.375 -1.242188 5.734375 -1.609375 6.078125 -2.078125 L 6.5 -1.765625 C 6.15625 -1.234375 5.691406 -0.769531 5.109375 -0.375 C 4.523438 0.0078125 3.914062 0.203125 3.28125 0.203125 Z M 3.28125 0.203125 "/>
</symbol>
<symbol overflow="visible" id="glyph0-7">
<path style="stroke:none;" d="M 5.125 -0.96875 L 5.078125 -0.96875 C 4.972656 -0.882812 4.84375 -0.773438 4.6875 -0.640625 C 4.539062 -0.503906 4.363281 -0.375 4.15625 -0.25 C 3.96875 -0.125 3.757812 -0.0195312 3.53125 0.0625 C 3.3125 0.15625 3.066406 0.203125 2.796875 0.203125 C 2.085938 0.203125 1.53125 -0.0507812 1.125 -0.5625 C 0.71875 -1.070312 0.515625 -1.769531 0.515625 -2.65625 C 0.515625 -3.257812 0.625 -3.847656 0.84375 -4.421875 C 1.070312 -5.003906 1.390625 -5.523438 1.796875 -5.984375 C 2.171875 -6.421875 2.617188 -6.769531 3.140625 -7.03125 C 3.660156 -7.300781 4.195312 -7.4375 4.75 -7.4375 C 5.09375 -7.4375 5.421875 -7.390625 5.734375 -7.296875 C 6.054688 -7.203125 6.3125 -7.097656 6.5 -6.984375 L 7.84375 -7.328125 L 7.9375 -7.21875 L 6.8125 -2.46875 C 6.769531 -2.3125 6.726562 -2.125 6.6875 -1.90625 C 6.644531 -1.6875 6.625 -1.523438 6.625 -1.421875 C 6.625 -1.140625 6.679688 -0.945312 6.796875 -0.84375 C 6.921875 -0.75 7.125 -0.703125 7.40625 -0.703125 C 7.5 -0.703125 7.628906 -0.71875 7.796875 -0.75 C 7.972656 -0.78125 8.109375 -0.8125 8.203125 -0.84375 L 8.078125 -0.375 C 7.640625 -0.195312 7.3125 -0.0703125 7.09375 0 C 6.875 0.0820312 6.613281 0.125 6.3125 0.125 C 5.957031 0.125 5.675781 0.0195312 5.46875 -0.1875 C 5.257812 -0.394531 5.144531 -0.65625 5.125 -0.96875 Z M 6.1875 -5.625 C 6.1875 -5.789062 6.164062 -5.945312 6.125 -6.09375 C 6.09375 -6.238281 6.023438 -6.375 5.921875 -6.5 C 5.816406 -6.625 5.675781 -6.722656 5.5 -6.796875 C 5.332031 -6.867188 5.117188 -6.90625 4.859375 -6.90625 C 4.503906 -6.90625 4.15625 -6.785156 3.8125 -6.546875 C 3.476562 -6.316406 3.175781 -6.003906 2.90625 -5.609375 C 2.644531 -5.234375 2.429688 -4.78125 2.265625 -4.25 C 2.109375 -3.71875 2.03125 -3.179688 2.03125 -2.640625 C 2.03125 -2.335938 2.046875 -2.070312 2.078125 -1.84375 C 2.117188 -1.613281 2.1875 -1.398438 2.28125 -1.203125 C 2.375 -1.015625 2.507812 -0.867188 2.6875 -0.765625 C 2.863281 -0.671875 3.085938 -0.625 3.359375 -0.625 C 3.640625 -0.625 3.929688 -0.695312 4.234375 -0.84375 C 4.535156 -1 4.875 -1.273438 5.25 -1.671875 Z M 6.1875 -5.625 "/>
</symbol>
<symbol overflow="visible" id="glyph0-8">
<path style="stroke:none;" d="M 4.421875 -11.296875 L 2.359375 -2.421875 C 2.316406 -2.234375 2.273438 -2.046875 2.234375 -1.859375 C 2.203125 -1.671875 2.1875 -1.519531 2.1875 -1.40625 C 2.1875 -1.125 2.25 -0.929688 2.375 -0.828125 C 2.5 -0.722656 2.703125 -0.671875 2.984375 -0.671875 C 3.078125 -0.671875 3.21875 -0.679688 3.40625 -0.703125 C 3.601562 -0.734375 3.753906 -0.765625 3.859375 -0.796875 L 3.75 -0.328125 C 3.300781 -0.148438 2.957031 -0.0234375 2.71875 0.046875 C 2.476562 0.117188 2.210938 0.15625 1.921875 0.15625 C 1.523438 0.15625 1.222656 0.0546875 1.015625 -0.140625 C 0.816406 -0.347656 0.71875 -0.601562 0.71875 -0.90625 C 0.71875 -1.019531 0.726562 -1.132812 0.75 -1.25 C 0.769531 -1.375 0.800781 -1.53125 0.84375 -1.71875 L 2.625 -9.484375 C 2.664062 -9.640625 2.691406 -9.742188 2.703125 -9.796875 C 2.710938 -9.859375 2.71875 -9.929688 2.71875 -10.015625 C 2.71875 -10.191406 2.6875 -10.328125 2.625 -10.421875 C 2.570312 -10.523438 2.488281 -10.601562 2.375 -10.65625 C 2.269531 -10.695312 2.140625 -10.722656 1.984375 -10.734375 C 1.828125 -10.753906 1.671875 -10.773438 1.515625 -10.796875 L 1.609375 -11.234375 L 4.34375 -11.40625 Z M 4.421875 -11.296875 "/>
</symbol>
<symbol overflow="visible" id="glyph0-9">
<path style="stroke:none;" d="M 12.84375 -0.828125 L 12.734375 -0.359375 C 12.285156 -0.179688 11.925781 -0.0546875 11.65625 0.015625 C 11.382812 0.0859375 11.148438 0.125 10.953125 0.125 C 10.566406 0.125 10.273438 0.0234375 10.078125 -0.171875 C 9.878906 -0.378906 9.78125 -0.632812 9.78125 -0.9375 C 9.78125 -1.039062 9.789062 -1.15625 9.8125 -1.28125 C 9.832031 -1.414062 9.863281 -1.570312 9.90625 -1.75 L 10.625 -4.5 C 10.675781 -4.707031 10.71875 -4.894531 10.75 -5.0625 C 10.78125 -5.238281 10.796875 -5.378906 10.796875 -5.484375 C 10.796875 -5.816406 10.722656 -6.078125 10.578125 -6.265625 C 10.441406 -6.460938 10.21875 -6.5625 9.90625 -6.5625 C 9.582031 -6.5625 9.257812 -6.484375 8.9375 -6.328125 C 8.625 -6.171875 8.269531 -5.882812 7.875 -5.46875 L 6.59375 0 L 5.21875 0 L 6.375 -4.921875 C 6.394531 -5.023438 6.414062 -5.140625 6.4375 -5.265625 C 6.46875 -5.390625 6.484375 -5.476562 6.484375 -5.53125 C 6.484375 -5.851562 6.398438 -6.101562 6.234375 -6.28125 C 6.078125 -6.46875 5.84375 -6.5625 5.53125 -6.5625 C 5.25 -6.5625 4.9375 -6.488281 4.59375 -6.34375 C 4.257812 -6.207031 3.867188 -5.894531 3.421875 -5.40625 L 2.1875 0 L 0.8125 0 L 1.90625 -4.78125 C 1.945312 -4.945312 1.984375 -5.128906 2.015625 -5.328125 C 2.054688 -5.523438 2.078125 -5.691406 2.078125 -5.828125 C 2.078125 -6.109375 2.03125 -6.296875 1.9375 -6.390625 C 1.84375 -6.484375 1.660156 -6.53125 1.390625 -6.53125 C 1.285156 -6.53125 1.144531 -6.507812 0.96875 -6.46875 C 0.800781 -6.425781 0.671875 -6.394531 0.578125 -6.375 L 0.6875 -6.84375 C 1.070312 -7.019531 1.410156 -7.148438 1.703125 -7.234375 C 2.003906 -7.316406 2.257812 -7.359375 2.46875 -7.359375 C 2.863281 -7.359375 3.140625 -7.25 3.296875 -7.03125 C 3.460938 -6.820312 3.550781 -6.53125 3.5625 -6.15625 L 3.609375 -6.15625 C 4.191406 -6.613281 4.664062 -6.941406 5.03125 -7.140625 C 5.40625 -7.335938 5.851562 -7.4375 6.375 -7.4375 C 6.8125 -7.4375 7.164062 -7.304688 7.4375 -7.046875 C 7.707031 -6.796875 7.863281 -6.484375 7.90625 -6.109375 L 7.9375 -6.109375 C 8.457031 -6.546875 8.921875 -6.875 9.328125 -7.09375 C 9.742188 -7.320312 10.222656 -7.4375 10.765625 -7.4375 C 11.234375 -7.4375 11.59375 -7.300781 11.84375 -7.03125 C 12.101562 -6.757812 12.234375 -6.398438 12.234375 -5.953125 C 12.234375 -5.867188 12.21875 -5.710938 12.1875 -5.484375 C 12.164062 -5.253906 12.125 -5.03125 12.0625 -4.8125 L 11.453125 -2.453125 C 11.398438 -2.296875 11.351562 -2.113281 11.3125 -1.90625 C 11.28125 -1.695312 11.265625 -1.539062 11.265625 -1.4375 C 11.265625 -1.15625 11.320312 -0.960938 11.4375 -0.859375 C 11.550781 -0.753906 11.75 -0.703125 12.03125 -0.703125 C 12.125 -0.703125 12.257812 -0.710938 12.4375 -0.734375 C 12.613281 -0.765625 12.75 -0.796875 12.84375 -0.828125 Z M 12.84375 -0.828125 "/>
</symbol>
<symbol overflow="visible" id="glyph0-10">
<path style="stroke:none;" d="M 3.046875 -0.71875 C 3.046875 -0.300781 2.945312 0.0820312 2.75 0.4375 C 2.5625 0.800781 2.316406 1.128906 2.015625 1.421875 C 1.734375 1.703125 1.4375 1.941406 1.125 2.140625 C 0.820312 2.335938 0.554688 2.492188 0.328125 2.609375 L 0.09375 2.109375 C 0.3125 1.992188 0.535156 1.859375 0.765625 1.703125 C 1.003906 1.546875 1.203125 1.390625 1.359375 1.234375 C 1.554688 1.035156 1.722656 0.84375 1.859375 0.65625 C 1.992188 0.476562 2.097656 0.253906 2.171875 -0.015625 L 1.828125 -0.015625 C 1.523438 -0.015625 1.296875 -0.0859375 1.140625 -0.234375 C 0.992188 -0.390625 0.921875 -0.585938 0.921875 -0.828125 C 0.921875 -1.078125 1.019531 -1.3125 1.21875 -1.53125 C 1.414062 -1.75 1.679688 -1.859375 2.015625 -1.859375 C 2.378906 -1.859375 2.640625 -1.753906 2.796875 -1.546875 C 2.960938 -1.335938 3.046875 -1.0625 3.046875 -0.71875 Z M 3.046875 -0.71875 "/>
</symbol>
<symbol overflow="visible" id="glyph0-11">
<path style="stroke:none;" d="M 11.953125 -6.078125 C 11.953125 -5.304688 11.835938 -4.539062 11.609375 -3.78125 C 11.390625 -3.019531 11.085938 -2.351562 10.703125 -1.78125 C 10.273438 -1.144531 9.789062 -0.648438 9.25 -0.296875 C 8.71875 0.046875 8.132812 0.21875 7.5 0.21875 C 7.03125 0.21875 6.597656 0.09375 6.203125 -0.15625 C 5.816406 -0.414062 5.5625 -0.769531 5.4375 -1.21875 C 5.257812 -1.039062 5.09375 -0.878906 4.9375 -0.734375 C 4.789062 -0.585938 4.597656 -0.4375 4.359375 -0.28125 C 4.117188 -0.125 3.894531 -0.00390625 3.6875 0.078125 C 3.488281 0.160156 3.238281 0.203125 2.9375 0.203125 C 2.5625 0.203125 2.25 0.144531 2 0.03125 C 1.757812 -0.0820312 1.566406 -0.234375 1.421875 -0.421875 C 1.285156 -0.597656 1.1875 -0.796875 1.125 -1.015625 C 1.070312 -1.242188 1.046875 -1.476562 1.046875 -1.71875 C 1.046875 -1.8125 1.054688 -1.929688 1.078125 -2.078125 C 1.097656 -2.222656 1.117188 -2.347656 1.140625 -2.453125 L 1.765625 -4.78125 C 1.828125 -5 1.867188 -5.195312 1.890625 -5.375 C 1.921875 -5.5625 1.9375 -5.710938 1.9375 -5.828125 C 1.9375 -6.109375 1.890625 -6.289062 1.796875 -6.375 C 1.710938 -6.46875 1.53125 -6.515625 1.25 -6.515625 C 1.132812 -6.515625 0.992188 -6.492188 0.828125 -6.453125 C 0.660156 -6.410156 0.53125 -6.378906 0.4375 -6.359375 L 0.546875 -6.828125 C 0.929688 -7.003906 1.269531 -7.132812 1.5625 -7.21875 C 1.851562 -7.3125 2.085938 -7.359375 2.265625 -7.359375 C 2.660156 -7.359375 2.945312 -7.265625 3.125 -7.078125 C 3.3125 -6.890625 3.40625 -6.628906 3.40625 -6.296875 C 3.40625 -6.203125 3.394531 -6.078125 3.375 -5.921875 C 3.363281 -5.773438 3.335938 -5.625 3.296875 -5.46875 L 2.609375 -2.75 C 2.566406 -2.570312 2.53125 -2.382812 2.5 -2.1875 C 2.46875 -2 2.453125 -1.859375 2.453125 -1.765625 C 2.453125 -1.398438 2.523438 -1.125 2.671875 -0.9375 C 2.816406 -0.75 3.066406 -0.65625 3.421875 -0.65625 C 3.734375 -0.65625 4.054688 -0.738281 4.390625 -0.90625 C 4.734375 -1.070312 5.046875 -1.316406 5.328125 -1.640625 L 6.625 -7.234375 L 7.90625 -7.328125 L 8 -7.21875 L 6.953125 -2.734375 C 6.921875 -2.578125 6.882812 -2.390625 6.84375 -2.171875 C 6.8125 -1.960938 6.796875 -1.832031 6.796875 -1.78125 C 6.796875 -1.507812 6.835938 -1.296875 6.921875 -1.140625 C 7.003906 -0.984375 7.113281 -0.867188 7.25 -0.796875 C 7.375 -0.722656 7.503906 -0.675781 7.640625 -0.65625 C 7.785156 -0.644531 7.921875 -0.640625 8.046875 -0.640625 C 8.378906 -0.640625 8.722656 -0.742188 9.078125 -0.953125 C 9.429688 -1.160156 9.738281 -1.4375 10 -1.78125 C 10.28125 -2.15625 10.503906 -2.570312 10.671875 -3.03125 C 10.847656 -3.488281 10.9375 -3.984375 10.9375 -4.515625 C 10.9375 -4.804688 10.894531 -5.03125 10.8125 -5.1875 C 10.726562 -5.351562 10.640625 -5.492188 10.546875 -5.609375 C 10.441406 -5.734375 10.347656 -5.863281 10.265625 -6 C 10.191406 -6.132812 10.15625 -6.328125 10.15625 -6.578125 C 10.15625 -6.859375 10.242188 -7.070312 10.421875 -7.21875 C 10.609375 -7.363281 10.804688 -7.4375 11.015625 -7.4375 C 11.304688 -7.4375 11.535156 -7.316406 11.703125 -7.078125 C 11.867188 -6.847656 11.953125 -6.515625 11.953125 -6.078125 Z M 11.953125 -6.078125 "/>
</symbol>
<symbol overflow="visible" id="glyph0-12">
<path style="stroke:none;" d="M 4.0625 -0.796875 L 3.953125 -0.328125 C 3.492188 -0.148438 3.128906 -0.0234375 2.859375 0.046875 C 2.597656 0.117188 2.367188 0.15625 2.171875 0.15625 C 1.773438 0.15625 1.476562 0.0546875 1.28125 -0.140625 C 1.09375 -0.347656 1 -0.601562 1 -0.90625 C 1 -1.019531 1.003906 -1.132812 1.015625 -1.25 C 1.035156 -1.375 1.070312 -1.53125 1.125 -1.71875 L 1.90625 -4.859375 C 1.9375 -5.023438 1.972656 -5.207031 2.015625 -5.40625 C 2.054688 -5.601562 2.078125 -5.769531 2.078125 -5.90625 C 2.078125 -6.1875 2.03125 -6.367188 1.9375 -6.453125 C 1.84375 -6.546875 1.65625 -6.59375 1.375 -6.59375 C 1.269531 -6.59375 1.125 -6.578125 0.9375 -6.546875 C 0.757812 -6.515625 0.625 -6.484375 0.53125 -6.453125 L 0.65625 -6.921875 C 1.03125 -7.097656 1.367188 -7.226562 1.671875 -7.3125 C 1.984375 -7.394531 2.226562 -7.4375 2.40625 -7.4375 C 2.800781 -7.4375 3.085938 -7.335938 3.265625 -7.140625 C 3.453125 -6.953125 3.546875 -6.695312 3.546875 -6.375 C 3.546875 -6.289062 3.535156 -6.171875 3.515625 -6.015625 C 3.503906 -5.859375 3.476562 -5.707031 3.4375 -5.5625 L 2.640625 -2.421875 C 2.597656 -2.234375 2.554688 -2.046875 2.515625 -1.859375 C 2.484375 -1.671875 2.46875 -1.519531 2.46875 -1.40625 C 2.46875 -1.125 2.53125 -0.929688 2.65625 -0.828125 C 2.78125 -0.722656 2.976562 -0.671875 3.25 -0.671875 C 3.34375 -0.671875 3.476562 -0.679688 3.65625 -0.703125 C 3.832031 -0.734375 3.96875 -0.765625 4.0625 -0.796875 Z M 4.578125 -10.21875 C 4.578125 -9.9375 4.484375 -9.691406 4.296875 -9.484375 C 4.117188 -9.273438 3.898438 -9.171875 3.640625 -9.171875 C 3.378906 -9.171875 3.160156 -9.269531 2.984375 -9.46875 C 2.804688 -9.664062 2.71875 -9.894531 2.71875 -10.15625 C 2.71875 -10.425781 2.804688 -10.660156 2.984375 -10.859375 C 3.160156 -11.066406 3.378906 -11.171875 3.640625 -11.171875 C 3.910156 -11.171875 4.132812 -11.070312 4.3125 -10.875 C 4.488281 -10.6875 4.578125 -10.46875 4.578125 -10.21875 Z M 4.578125 -10.21875 "/>
</symbol>
<symbol overflow="visible" id="glyph0-13">
<path style="stroke:none;" d="M 2.671875 0.21875 C 1.941406 0.21875 1.332031 0.0859375 0.84375 -0.171875 C 0.363281 -0.429688 0.125 -0.769531 0.125 -1.1875 C 0.125 -1.382812 0.191406 -1.566406 0.328125 -1.734375 C 0.472656 -1.910156 0.648438 -2 0.859375 -2 C 1.054688 -2 1.210938 -1.953125 1.328125 -1.859375 C 1.453125 -1.765625 1.550781 -1.660156 1.625 -1.546875 C 1.695312 -1.410156 1.757812 -1.253906 1.8125 -1.078125 C 1.875 -0.898438 1.921875 -0.757812 1.953125 -0.65625 C 2.035156 -0.5625 2.140625 -0.476562 2.265625 -0.40625 C 2.398438 -0.34375 2.585938 -0.3125 2.828125 -0.3125 C 3.359375 -0.3125 3.757812 -0.441406 4.03125 -0.703125 C 4.300781 -0.972656 4.4375 -1.332031 4.4375 -1.78125 C 4.4375 -2.113281 4.304688 -2.378906 4.046875 -2.578125 C 3.796875 -2.773438 3.421875 -2.957031 2.921875 -3.125 C 2.734375 -3.1875 2.515625 -3.273438 2.265625 -3.390625 C 2.023438 -3.515625 1.832031 -3.644531 1.6875 -3.78125 C 1.507812 -3.945312 1.363281 -4.132812 1.25 -4.34375 C 1.144531 -4.5625 1.09375 -4.816406 1.09375 -5.109375 C 1.09375 -5.742188 1.375 -6.289062 1.9375 -6.75 C 2.5 -7.207031 3.191406 -7.4375 4.015625 -7.4375 C 4.203125 -7.4375 4.40625 -7.425781 4.625 -7.40625 C 4.851562 -7.382812 5.097656 -7.332031 5.359375 -7.25 C 5.597656 -7.164062 5.796875 -7.046875 5.953125 -6.890625 C 6.117188 -6.734375 6.203125 -6.535156 6.203125 -6.296875 C 6.203125 -6.085938 6.132812 -5.898438 6 -5.734375 C 5.863281 -5.578125 5.6875 -5.5 5.46875 -5.5 C 5.28125 -5.5 5.125 -5.535156 5 -5.609375 C 4.882812 -5.691406 4.789062 -5.800781 4.71875 -5.9375 C 4.632812 -6.0625 4.566406 -6.203125 4.515625 -6.359375 C 4.472656 -6.515625 4.421875 -6.664062 4.359375 -6.8125 C 4.265625 -6.851562 4.179688 -6.878906 4.109375 -6.890625 C 4.035156 -6.898438 3.9375 -6.90625 3.8125 -6.90625 C 3.332031 -6.90625 2.96875 -6.773438 2.71875 -6.515625 C 2.46875 -6.265625 2.34375 -5.960938 2.34375 -5.609375 C 2.34375 -5.265625 2.453125 -5.003906 2.671875 -4.828125 C 2.898438 -4.648438 3.273438 -4.472656 3.796875 -4.296875 C 4.460938 -4.046875 4.945312 -3.765625 5.25 -3.453125 C 5.550781 -3.148438 5.703125 -2.769531 5.703125 -2.3125 C 5.703125 -1.5625 5.414062 -0.953125 4.84375 -0.484375 C 4.269531 -0.015625 3.546875 0.21875 2.671875 0.21875 Z M 2.671875 0.21875 "/>
</symbol>
<symbol overflow="visible" id="glyph0-14">
<path style="stroke:none;" d="M 7.609375 -4.546875 C 7.609375 -3.960938 7.507812 -3.378906 7.3125 -2.796875 C 7.125 -2.222656 6.84375 -1.71875 6.46875 -1.28125 C 6.082031 -0.820312 5.625 -0.457031 5.09375 -0.1875 C 4.5625 0.0820312 3.945312 0.21875 3.25 0.21875 C 2.425781 0.21875 1.757812 -0.0390625 1.25 -0.5625 C 0.75 -1.09375 0.5 -1.800781 0.5 -2.6875 C 0.5 -3.34375 0.601562 -3.953125 0.8125 -4.515625 C 1.03125 -5.078125 1.320312 -5.570312 1.6875 -6 C 2.050781 -6.425781 2.503906 -6.769531 3.046875 -7.03125 C 3.597656 -7.300781 4.1875 -7.4375 4.8125 -7.4375 C 5.6875 -7.4375 6.367188 -7.171875 6.859375 -6.640625 C 7.359375 -6.109375 7.609375 -5.410156 7.609375 -4.546875 Z M 6.109375 -4.8125 C 6.109375 -5.507812 5.984375 -6.03125 5.734375 -6.375 C 5.484375 -6.726562 5.128906 -6.90625 4.671875 -6.90625 C 4.253906 -6.90625 3.863281 -6.78125 3.5 -6.53125 C 3.144531 -6.28125 2.835938 -5.875 2.578125 -5.3125 C 2.378906 -4.882812 2.234375 -4.410156 2.140625 -3.890625 C 2.046875 -3.367188 2 -2.882812 2 -2.4375 C 2 -1.738281 2.117188 -1.207031 2.359375 -0.84375 C 2.609375 -0.476562 2.976562 -0.296875 3.46875 -0.296875 C 3.90625 -0.296875 4.289062 -0.429688 4.625 -0.703125 C 4.96875 -0.984375 5.242188 -1.335938 5.453125 -1.765625 C 5.660156 -2.171875 5.820312 -2.640625 5.9375 -3.171875 C 6.050781 -3.710938 6.109375 -4.257812 6.109375 -4.8125 Z M 6.109375 -4.8125 "/>
</symbol>
<symbol overflow="visible" id="glyph0-15">
<path style="stroke:none;" d="M 8.46875 -0.859375 L 8.359375 -0.390625 C 7.910156 -0.210938 7.5625 -0.0820312 7.3125 0 C 7.070312 0.0820312 6.828125 0.125 6.578125 0.125 C 6.179688 0.125 5.882812 0.0234375 5.6875 -0.171875 C 5.5 -0.378906 5.40625 -0.632812 5.40625 -0.9375 C 5.40625 -1.039062 5.414062 -1.15625 5.4375 -1.28125 C 5.457031 -1.414062 5.488281 -1.570312 5.53125 -1.75 L 6.25 -4.5 C 6.300781 -4.707031 6.34375 -4.894531 6.375 -5.0625 C 6.40625 -5.238281 6.421875 -5.378906 6.421875 -5.484375 C 6.421875 -5.816406 6.34375 -6.078125 6.1875 -6.265625 C 6.03125 -6.460938 5.796875 -6.5625 5.484375 -6.5625 C 5.191406 -6.5625 4.859375 -6.460938 4.484375 -6.265625 C 4.109375 -6.066406 3.753906 -5.78125 3.421875 -5.40625 L 2.1875 0 L 0.8125 0 L 1.90625 -4.78125 C 1.9375 -4.894531 1.972656 -5.0625 2.015625 -5.28125 C 2.054688 -5.507812 2.078125 -5.691406 2.078125 -5.828125 C 2.078125 -6.109375 2.03125 -6.289062 1.9375 -6.375 C 1.851562 -6.46875 1.671875 -6.515625 1.390625 -6.515625 C 1.273438 -6.515625 1.132812 -6.492188 0.96875 -6.453125 C 0.800781 -6.421875 0.671875 -6.394531 0.578125 -6.375 L 0.6875 -6.84375 C 1.070312 -7.019531 1.410156 -7.148438 1.703125 -7.234375 C 2.003906 -7.316406 2.257812 -7.359375 2.46875 -7.359375 C 2.851562 -7.359375 3.128906 -7.25 3.296875 -7.03125 C 3.460938 -6.820312 3.550781 -6.53125 3.5625 -6.15625 L 3.609375 -6.15625 C 4.148438 -6.59375 4.613281 -6.914062 5 -7.125 C 5.394531 -7.332031 5.847656 -7.4375 6.359375 -7.4375 C 6.828125 -7.4375 7.191406 -7.300781 7.453125 -7.03125 C 7.722656 -6.757812 7.859375 -6.398438 7.859375 -5.953125 C 7.859375 -5.867188 7.84375 -5.710938 7.8125 -5.484375 C 7.789062 -5.253906 7.75 -5.03125 7.6875 -4.8125 L 7.0625 -2.453125 C 7.019531 -2.296875 6.976562 -2.113281 6.9375 -1.90625 C 6.894531 -1.695312 6.875 -1.539062 6.875 -1.4375 C 6.875 -1.15625 6.9375 -0.960938 7.0625 -0.859375 C 7.1875 -0.753906 7.390625 -0.703125 7.671875 -0.703125 C 7.765625 -0.703125 7.894531 -0.71875 8.0625 -0.75 C 8.238281 -0.78125 8.375 -0.816406 8.46875 -0.859375 Z M 8.46875 -0.859375 "/>
</symbol>
<symbol overflow="visible" id="glyph0-16">
<path style="stroke:none;" d="M 5.28125 -1.0625 L 5.234375 -1.0625 C 4.785156 -0.6875 4.359375 -0.390625 3.953125 -0.171875 C 3.546875 0.0351562 3.082031 0.140625 2.5625 0.140625 C 2.082031 0.140625 1.707031 0.00390625 1.4375 -0.265625 C 1.164062 -0.535156 1.03125 -0.890625 1.03125 -1.328125 C 1.03125 -1.453125 1.035156 -1.59375 1.046875 -1.75 C 1.066406 -1.914062 1.113281 -2.15625 1.1875 -2.46875 L 1.765625 -4.78125 C 1.816406 -5 1.859375 -5.1875 1.890625 -5.34375 C 1.921875 -5.507812 1.9375 -5.671875 1.9375 -5.828125 C 1.9375 -6.109375 1.890625 -6.289062 1.796875 -6.375 C 1.710938 -6.46875 1.53125 -6.515625 1.25 -6.515625 C 1.132812 -6.515625 0.992188 -6.492188 0.828125 -6.453125 C 0.660156 -6.410156 0.53125 -6.378906 0.4375 -6.359375 L 0.546875 -6.828125 C 0.929688 -7.003906 1.269531 -7.132812 1.5625 -7.21875 C 1.851562 -7.3125 2.085938 -7.359375 2.265625 -7.359375 C 2.660156 -7.359375 2.953125 -7.269531 3.140625 -7.09375 C 3.328125 -6.914062 3.421875 -6.648438 3.421875 -6.296875 C 3.421875 -6.203125 3.410156 -6.078125 3.390625 -5.921875 C 3.378906 -5.773438 3.351562 -5.625 3.3125 -5.46875 L 2.640625 -2.78125 C 2.585938 -2.570312 2.546875 -2.378906 2.515625 -2.203125 C 2.484375 -2.023438 2.46875 -1.890625 2.46875 -1.796875 C 2.46875 -1.460938 2.546875 -1.203125 2.703125 -1.015625 C 2.859375 -0.828125 3.09375 -0.734375 3.40625 -0.734375 C 3.757812 -0.734375 4.109375 -0.820312 4.453125 -1 C 4.796875 -1.175781 5.117188 -1.414062 5.421875 -1.71875 L 6.640625 -7.234375 L 7.921875 -7.328125 L 8 -7.21875 L 6.734375 -1.4375 C 6.546875 -0.59375 6.304688 0.125 6.015625 0.71875 C 5.734375 1.320312 5.394531 1.804688 5 2.171875 C 4.59375 2.554688 4.15625 2.832031 3.6875 3 C 3.21875 3.175781 2.679688 3.265625 2.078125 3.265625 C 1.648438 3.265625 1.3125 3.234375 1.0625 3.171875 C 0.820312 3.117188 0.632812 3.039062 0.5 2.9375 C 0.351562 2.84375 0.253906 2.734375 0.203125 2.609375 C 0.148438 2.484375 0.125 2.359375 0.125 2.234375 C 0.125 2.023438 0.1875 1.835938 0.3125 1.671875 C 0.445312 1.515625 0.632812 1.4375 0.875 1.4375 C 1.0625 1.4375 1.21875 1.488281 1.34375 1.59375 C 1.46875 1.695312 1.570312 1.8125 1.65625 1.9375 C 1.738281 2.0625 1.816406 2.207031 1.890625 2.375 C 1.960938 2.539062 2.023438 2.675781 2.078125 2.78125 L 2.25 2.78125 C 2.53125 2.78125 2.828125 2.707031 3.140625 2.5625 C 3.453125 2.425781 3.738281 2.21875 4 1.9375 C 4.28125 1.613281 4.53125 1.203125 4.75 0.703125 C 4.96875 0.210938 5.144531 -0.375 5.28125 -1.0625 Z M 5.28125 -1.0625 "/>
</symbol>
<symbol overflow="visible" id="glyph0-17">
<path style="stroke:none;" d="M 5.203125 -1.03125 L 5.171875 -1.03125 C 4.941406 -0.851562 4.722656 -0.6875 4.515625 -0.53125 C 4.304688 -0.375 4.101562 -0.242188 3.90625 -0.140625 C 3.664062 -0.0234375 3.453125 0.0546875 3.265625 0.109375 C 3.078125 0.160156 2.828125 0.1875 2.515625 0.1875 C 2.046875 0.1875 1.679688 0.0507812 1.421875 -0.21875 C 1.160156 -0.5 1.03125 -0.859375 1.03125 -1.296875 C 1.03125 -1.410156 1.035156 -1.546875 1.046875 -1.703125 C 1.066406 -1.867188 1.113281 -2.113281 1.1875 -2.4375 L 1.765625 -4.78125 C 1.816406 -4.988281 1.859375 -5.175781 1.890625 -5.34375 C 1.921875 -5.507812 1.9375 -5.671875 1.9375 -5.828125 C 1.9375 -6.109375 1.890625 -6.289062 1.796875 -6.375 C 1.710938 -6.46875 1.53125 -6.515625 1.25 -6.515625 C 1.132812 -6.515625 0.992188 -6.492188 0.828125 -6.453125 C 0.660156 -6.410156 0.53125 -6.378906 0.4375 -6.359375 L 0.546875 -6.828125 C 0.929688 -7.003906 1.269531 -7.132812 1.5625 -7.21875 C 1.851562 -7.3125 2.085938 -7.359375 2.265625 -7.359375 C 2.660156 -7.359375 2.945312 -7.265625 3.125 -7.078125 C 3.3125 -6.890625 3.40625 -6.628906 3.40625 -6.296875 C 3.40625 -6.203125 3.394531 -6.078125 3.375 -5.921875 C 3.363281 -5.773438 3.335938 -5.625 3.296875 -5.46875 L 2.640625 -2.75 C 2.585938 -2.539062 2.546875 -2.347656 2.515625 -2.171875 C 2.484375 -1.992188 2.46875 -1.859375 2.46875 -1.765625 C 2.46875 -1.429688 2.535156 -1.164062 2.671875 -0.96875 C 2.816406 -0.78125 3.046875 -0.6875 3.359375 -0.6875 C 3.671875 -0.6875 3.992188 -0.769531 4.328125 -0.9375 C 4.660156 -1.101562 4.992188 -1.351562 5.328125 -1.6875 L 6.625 -7.234375 L 7.90625 -7.328125 L 7.984375 -7.21875 L 6.890625 -2.46875 C 6.835938 -2.269531 6.789062 -2.066406 6.75 -1.859375 C 6.71875 -1.660156 6.703125 -1.519531 6.703125 -1.4375 C 6.703125 -1.15625 6.757812 -0.960938 6.875 -0.859375 C 7 -0.753906 7.203125 -0.703125 7.484375 -0.703125 C 7.578125 -0.703125 7.707031 -0.71875 7.875 -0.75 C 8.050781 -0.78125 8.1875 -0.8125 8.28125 -0.84375 L 8.171875 -0.375 C 7.753906 -0.207031 7.410156 -0.0820312 7.140625 0 C 6.867188 0.0820312 6.617188 0.125 6.390625 0.125 C 5.992188 0.125 5.695312 0.0078125 5.5 -0.21875 C 5.300781 -0.445312 5.203125 -0.71875 5.203125 -1.03125 Z M 5.203125 -1.03125 "/>
</symbol>
<symbol overflow="visible" id="glyph0-18">
<path style="stroke:none;" d="M 7.03125 -6.234375 C 7.03125 -6.097656 7.007812 -5.945312 6.96875 -5.78125 C 6.925781 -5.613281 6.867188 -5.476562 6.796875 -5.375 C 6.710938 -5.238281 6.617188 -5.132812 6.515625 -5.0625 C 6.410156 -4.988281 6.257812 -4.953125 6.0625 -4.953125 C 5.789062 -4.953125 5.585938 -5.019531 5.453125 -5.15625 C 5.328125 -5.289062 5.265625 -5.4375 5.265625 -5.59375 C 5.265625 -5.75 5.300781 -5.921875 5.375 -6.109375 C 5.445312 -6.296875 5.519531 -6.484375 5.59375 -6.671875 C 5.539062 -6.671875 5.445312 -6.65625 5.3125 -6.625 C 5.175781 -6.59375 5.007812 -6.53125 4.8125 -6.4375 C 4.625 -6.34375 4.40625 -6.203125 4.15625 -6.015625 C 3.914062 -5.828125 3.660156 -5.582031 3.390625 -5.28125 L 2.203125 0 L 0.828125 0 L 1.90625 -4.78125 C 1.9375 -4.894531 1.972656 -5.066406 2.015625 -5.296875 C 2.054688 -5.535156 2.078125 -5.710938 2.078125 -5.828125 C 2.078125 -6.109375 2.03125 -6.289062 1.9375 -6.375 C 1.851562 -6.46875 1.671875 -6.515625 1.390625 -6.515625 C 1.273438 -6.515625 1.132812 -6.492188 0.96875 -6.453125 C 0.800781 -6.421875 0.671875 -6.394531 0.578125 -6.375 L 0.6875 -6.84375 C 1.070312 -7.019531 1.410156 -7.148438 1.703125 -7.234375 C 2.003906 -7.316406 2.257812 -7.359375 2.46875 -7.359375 C 2.863281 -7.359375 3.144531 -7.25 3.3125 -7.03125 C 3.476562 -6.820312 3.5625 -6.503906 3.5625 -6.078125 L 3.609375 -6.078125 C 4.191406 -6.578125 4.632812 -6.925781 4.9375 -7.125 C 5.238281 -7.332031 5.550781 -7.4375 5.875 -7.4375 C 6.03125 -7.4375 6.179688 -7.414062 6.328125 -7.375 C 6.484375 -7.332031 6.613281 -7.265625 6.71875 -7.171875 C 6.820312 -7.078125 6.898438 -6.960938 6.953125 -6.828125 C 7.003906 -6.691406 7.03125 -6.492188 7.03125 -6.234375 Z M 7.03125 -6.234375 "/>
</symbol>
<symbol overflow="visible" id="glyph0-19">
<path style="stroke:none;" d="M 7.84375 -4.625 C 7.84375 -3.96875 7.722656 -3.335938 7.484375 -2.734375 C 7.253906 -2.140625 6.941406 -1.628906 6.546875 -1.203125 C 6.148438 -0.753906 5.703125 -0.40625 5.203125 -0.15625 C 4.703125 0.09375 4.171875 0.21875 3.609375 0.21875 C 3.191406 0.21875 2.820312 0.179688 2.5 0.109375 C 2.175781 0.0351562 1.898438 -0.0546875 1.671875 -0.171875 C 1.441406 -0.304688 1.25 -0.453125 1.09375 -0.609375 C 0.945312 -0.765625 0.8125 -0.941406 0.6875 -1.140625 L 2.59375 -9.484375 C 2.613281 -9.597656 2.628906 -9.691406 2.640625 -9.765625 C 2.660156 -9.847656 2.671875 -9.929688 2.671875 -10.015625 C 2.671875 -10.191406 2.640625 -10.328125 2.578125 -10.421875 C 2.523438 -10.523438 2.445312 -10.601562 2.34375 -10.65625 C 2.238281 -10.695312 2.101562 -10.722656 1.9375 -10.734375 C 1.78125 -10.753906 1.625 -10.773438 1.46875 -10.796875 L 1.5625 -11.234375 L 4.296875 -11.40625 L 4.375 -11.296875 L 3.25 -6.390625 L 3.28125 -6.390625 C 3.726562 -6.785156 4.117188 -7.054688 4.453125 -7.203125 C 4.785156 -7.359375 5.113281 -7.4375 5.4375 -7.4375 C 6.1875 -7.4375 6.773438 -7.179688 7.203125 -6.671875 C 7.628906 -6.160156 7.84375 -5.476562 7.84375 -4.625 Z M 6.328125 -4.578125 C 6.328125 -4.835938 6.300781 -5.097656 6.25 -5.359375 C 6.207031 -5.628906 6.128906 -5.851562 6.015625 -6.03125 C 5.910156 -6.21875 5.757812 -6.363281 5.5625 -6.46875 C 5.363281 -6.582031 5.117188 -6.640625 4.828125 -6.640625 C 4.648438 -6.640625 4.484375 -6.609375 4.328125 -6.546875 C 4.179688 -6.484375 4.03125 -6.40625 3.875 -6.3125 C 3.726562 -6.21875 3.585938 -6.109375 3.453125 -5.984375 C 3.316406 -5.859375 3.191406 -5.75 3.078125 -5.65625 L 2.09375 -1.28125 C 2.113281 -1.1875 2.160156 -1.078125 2.234375 -0.953125 C 2.304688 -0.835938 2.398438 -0.738281 2.515625 -0.65625 C 2.648438 -0.539062 2.800781 -0.453125 2.96875 -0.390625 C 3.144531 -0.328125 3.335938 -0.296875 3.546875 -0.296875 C 3.929688 -0.296875 4.296875 -0.410156 4.640625 -0.640625 C 4.984375 -0.867188 5.273438 -1.175781 5.515625 -1.5625 C 5.785156 -1.988281 5.988281 -2.460938 6.125 -2.984375 C 6.257812 -3.503906 6.328125 -4.035156 6.328125 -4.578125 Z M 6.328125 -4.578125 "/>
</symbol>
<symbol overflow="visible" id="glyph0-20">
<path style="stroke:none;" d="M 7.890625 -6.59375 C 7.890625 -6.375 7.804688 -6.171875 7.640625 -5.984375 C 7.472656 -5.804688 7.265625 -5.71875 7.015625 -5.71875 C 6.847656 -5.71875 6.6875 -5.738281 6.53125 -5.78125 C 6.375 -5.832031 6.203125 -5.898438 6.015625 -5.984375 C 5.742188 -5.828125 5.460938 -5.632812 5.171875 -5.40625 C 4.890625 -5.1875 4.578125 -4.921875 4.234375 -4.609375 C 4.515625 -3.878906 4.75 -3.28125 4.9375 -2.8125 C 5.132812 -2.351562 5.304688 -1.976562 5.453125 -1.6875 C 5.628906 -1.3125 5.820312 -1.046875 6.03125 -0.890625 C 6.25 -0.734375 6.484375 -0.65625 6.734375 -0.65625 C 6.847656 -0.65625 7.007812 -0.675781 7.21875 -0.71875 C 7.425781 -0.757812 7.585938 -0.796875 7.703125 -0.828125 L 7.59375 -0.34375 C 7.132812 -0.15625 6.773438 -0.03125 6.515625 0.03125 C 6.253906 0.09375 5.988281 0.125 5.71875 0.125 C 5.40625 0.125 5.132812 0.0390625 4.90625 -0.125 C 4.6875 -0.300781 4.476562 -0.617188 4.28125 -1.078125 C 4.070312 -1.515625 3.890625 -1.945312 3.734375 -2.375 C 3.578125 -2.800781 3.421875 -3.203125 3.265625 -3.578125 L 2.40625 -2.84375 L 1.78125 0 L 0.40625 0 L 2.59375 -9.484375 C 2.625 -9.640625 2.644531 -9.742188 2.65625 -9.796875 C 2.675781 -9.859375 2.6875 -9.929688 2.6875 -10.015625 C 2.6875 -10.191406 2.65625 -10.328125 2.59375 -10.421875 C 2.53125 -10.523438 2.445312 -10.601562 2.34375 -10.65625 C 2.238281 -10.695312 2.109375 -10.722656 1.953125 -10.734375 C 1.796875 -10.753906 1.632812 -10.773438 1.46875 -10.796875 L 1.578125 -11.234375 L 4.3125 -11.40625 L 4.390625 -11.296875 L 2.59375 -3.625 L 2.609375 -3.625 C 3.171875 -4.226562 3.675781 -4.75 4.125 -5.1875 C 4.582031 -5.625 5.0625 -6.070312 5.5625 -6.53125 C 5.914062 -6.851562 6.191406 -7.070312 6.390625 -7.1875 C 6.597656 -7.3125 6.820312 -7.375 7.0625 -7.375 C 7.3125 -7.375 7.507812 -7.300781 7.65625 -7.15625 C 7.8125 -7.019531 7.890625 -6.832031 7.890625 -6.59375 Z M 7.890625 -6.59375 "/>
</symbol>
<symbol overflow="visible" id="glyph0-21">
<path style="stroke:none;" d="M 8.203125 -4.625 C 8.203125 -3.96875 8.085938 -3.34375 7.859375 -2.75 C 7.628906 -2.15625 7.320312 -1.644531 6.9375 -1.21875 C 6.507812 -0.738281 6.046875 -0.382812 5.546875 -0.15625 C 5.054688 0.0703125 4.546875 0.1875 4.015625 0.1875 C 3.597656 0.1875 3.253906 0.132812 2.984375 0.03125 C 2.710938 -0.0703125 2.46875 -0.195312 2.25 -0.34375 L 1.828125 1.578125 C 1.796875 1.703125 1.769531 1.816406 1.75 1.921875 C 1.738281 2.035156 1.734375 2.125 1.734375 2.1875 C 1.734375 2.320312 1.78125 2.425781 1.875 2.5 C 1.96875 2.582031 2.078125 2.640625 2.203125 2.671875 C 2.328125 2.710938 2.460938 2.742188 2.609375 2.765625 C 2.765625 2.785156 2.90625 2.800781 3.03125 2.8125 L 2.921875 3.265625 L -1.140625 3.265625 L -1.03125 2.8125 C -0.875 2.800781 -0.726562 2.785156 -0.59375 2.765625 C -0.457031 2.753906 -0.328125 2.734375 -0.203125 2.703125 C -0.046875 2.648438 0.0703125 2.5625 0.15625 2.4375 C 0.25 2.320312 0.316406 2.175781 0.359375 2 L 1.90625 -4.78125 C 1.9375 -4.96875 1.96875 -5.15625 2 -5.34375 C 2.039062 -5.53125 2.0625 -5.691406 2.0625 -5.828125 C 2.0625 -6.109375 2.019531 -6.289062 1.9375 -6.375 C 1.851562 -6.46875 1.664062 -6.515625 1.375 -6.515625 C 1.269531 -6.515625 1.132812 -6.492188 0.96875 -6.453125 C 0.800781 -6.410156 0.671875 -6.378906 0.578125 -6.359375 L 0.6875 -6.828125 C 1.0625 -6.992188 1.394531 -7.125 1.6875 -7.21875 C 1.988281 -7.3125 2.25 -7.359375 2.46875 -7.359375 C 2.8125 -7.359375 3.070312 -7.269531 3.25 -7.09375 C 3.425781 -6.914062 3.535156 -6.675781 3.578125 -6.375 L 3.640625 -6.375 C 3.972656 -6.675781 4.328125 -6.925781 4.703125 -7.125 C 5.085938 -7.332031 5.46875 -7.4375 5.84375 -7.4375 C 6.59375 -7.4375 7.171875 -7.179688 7.578125 -6.671875 C 7.992188 -6.160156 8.203125 -5.476562 8.203125 -4.625 Z M 5.90625 -1.578125 C 6.15625 -1.984375 6.347656 -2.441406 6.484375 -2.953125 C 6.617188 -3.460938 6.6875 -4.003906 6.6875 -4.578125 C 6.6875 -4.835938 6.660156 -5.097656 6.609375 -5.359375 C 6.566406 -5.628906 6.492188 -5.847656 6.390625 -6.015625 C 6.285156 -6.210938 6.140625 -6.363281 5.953125 -6.46875 C 5.765625 -6.570312 5.519531 -6.625 5.21875 -6.625 C 4.988281 -6.625 4.738281 -6.554688 4.46875 -6.421875 C 4.195312 -6.285156 3.863281 -6.023438 3.46875 -5.640625 L 2.53125 -1.46875 C 2.5625 -1.1875 2.710938 -0.921875 2.984375 -0.671875 C 3.253906 -0.429688 3.578125 -0.3125 3.953125 -0.3125 C 4.335938 -0.3125 4.695312 -0.425781 5.03125 -0.65625 C 5.375 -0.882812 5.664062 -1.191406 5.90625 -1.578125 Z M 5.90625 -1.578125 "/>
</symbol>
<symbol overflow="visible" id="glyph0-22">
<path style="stroke:none;" d="M 2.234375 0.15625 C 1.765625 0.15625 1.421875 0.0625 1.203125 -0.125 C 0.992188 -0.3125 0.890625 -0.582031 0.890625 -0.9375 C 0.890625 -1.050781 0.894531 -1.160156 0.90625 -1.265625 C 0.914062 -1.367188 0.9375 -1.484375 0.96875 -1.609375 L 2.109375 -6.53125 L 0.796875 -6.53125 L 0.953125 -7.203125 L 2.296875 -7.203125 L 2.8125 -9.359375 L 4.140625 -9.359375 L 3.640625 -7.203125 L 5.6875 -7.203125 L 5.53125 -6.53125 L 3.5 -6.53125 L 2.546875 -2.46875 C 2.503906 -2.28125 2.46875 -2.097656 2.4375 -1.921875 C 2.40625 -1.753906 2.390625 -1.609375 2.390625 -1.484375 C 2.390625 -1.210938 2.457031 -1.015625 2.59375 -0.890625 C 2.726562 -0.765625 2.972656 -0.703125 3.328125 -0.703125 C 3.453125 -0.703125 3.628906 -0.71875 3.859375 -0.75 C 4.097656 -0.78125 4.28125 -0.820312 4.40625 -0.875 L 4.28125 -0.328125 C 3.9375 -0.191406 3.613281 -0.078125 3.3125 0.015625 C 3.007812 0.109375 2.648438 0.15625 2.234375 0.15625 Z M 2.234375 0.15625 "/>
</symbol>
<symbol overflow="visible" id="glyph0-23">
<path style="stroke:none;" d="M 2.953125 -0.84375 C 2.953125 -0.570312 2.847656 -0.335938 2.640625 -0.140625 C 2.441406 0.046875 2.207031 0.140625 1.9375 0.140625 C 1.664062 0.140625 1.425781 0.046875 1.21875 -0.140625 C 1.019531 -0.335938 0.921875 -0.570312 0.921875 -0.84375 C 0.921875 -1.125 1.019531 -1.363281 1.21875 -1.5625 C 1.425781 -1.757812 1.664062 -1.859375 1.9375 -1.859375 C 2.207031 -1.859375 2.441406 -1.757812 2.640625 -1.5625 C 2.847656 -1.363281 2.953125 -1.125 2.953125 -0.84375 Z M 2.953125 -0.84375 "/>
</symbol>
<symbol overflow="visible" id="glyph1-0">
<path style="stroke:none;" d="M 4.140625 0 L 4.140625 -24.828125 L 28.96875 -24.828125 L 28.96875 0 Z M 6.203125 -2.0625 L 26.90625 -2.0625 L 26.90625 -22.765625 L 6.203125 -22.765625 Z M 6.203125 -2.0625 "/>
</symbol>
<symbol overflow="visible" id="glyph1-1">
<path style="stroke:none;" d="M 21.375 -10.53125 C 22.0625 -10.050781 22.617188 -9.453125 23.046875 -8.734375 C 23.484375 -8.015625 23.703125 -7.171875 23.703125 -6.203125 C 23.703125 -5.046875 23.457031 -4.0625 22.96875 -3.25 C 22.476562 -2.445312 21.773438 -1.816406 20.859375 -1.359375 C 19.890625 -0.859375 18.769531 -0.503906 17.5 -0.296875 C 16.226562 -0.0976562 14.738281 0 13.03125 0 L 1.109375 0 L 1.109375 -1.265625 C 1.441406 -1.296875 1.863281 -1.34375 2.375 -1.40625 C 2.882812 -1.46875 3.238281 -1.546875 3.4375 -1.640625 C 3.84375 -1.796875 4.117188 -2.003906 4.265625 -2.265625 C 4.410156 -2.535156 4.484375 -2.878906 4.484375 -3.296875 L 4.484375 -19.46875 C 4.484375 -19.851562 4.421875 -20.175781 4.296875 -20.4375 C 4.179688 -20.695312 3.894531 -20.921875 3.4375 -21.109375 C 3.101562 -21.253906 2.710938 -21.367188 2.265625 -21.453125 C 1.828125 -21.546875 1.441406 -21.617188 1.109375 -21.671875 L 1.109375 -22.9375 L 13.578125 -22.9375 C 16.710938 -22.9375 18.972656 -22.503906 20.359375 -21.640625 C 21.753906 -20.785156 22.453125 -19.515625 22.453125 -17.828125 C 22.453125 -17.054688 22.296875 -16.375 21.984375 -15.78125 C 21.671875 -15.195312 21.222656 -14.691406 20.640625 -14.265625 C 20.117188 -13.859375 19.488281 -13.507812 18.75 -13.21875 C 18.019531 -12.925781 17.234375 -12.6875 16.390625 -12.5 L 16.390625 -12.1875 C 17.234375 -12.101562 18.109375 -11.914062 19.015625 -11.625 C 19.921875 -11.34375 20.707031 -10.976562 21.375 -10.53125 Z M 16.171875 -17.421875 C 16.171875 -18.691406 15.8125 -19.679688 15.09375 -20.390625 C 14.375 -21.109375 13.296875 -21.46875 11.859375 -21.46875 C 11.660156 -21.46875 11.394531 -21.457031 11.0625 -21.4375 C 10.738281 -21.425781 10.457031 -21.414062 10.21875 -21.40625 L 10.21875 -12.90625 L 11.0625 -12.90625 C 12.800781 -12.90625 14.085938 -13.3125 14.921875 -14.125 C 15.753906 -14.9375 16.171875 -16.035156 16.171875 -17.421875 Z M 17.296875 -6.421875 C 17.296875 -8.015625 16.820312 -9.234375 15.875 -10.078125 C 14.925781 -10.929688 13.5625 -11.359375 11.78125 -11.359375 C 11.582031 -11.359375 11.3125 -11.347656 10.96875 -11.328125 C 10.625 -11.316406 10.375 -11.304688 10.21875 -11.296875 L 10.21875 -2.90625 C 10.3125 -2.507812 10.609375 -2.171875 11.109375 -1.890625 C 11.617188 -1.617188 12.238281 -1.484375 12.96875 -1.484375 C 14.25 -1.484375 15.289062 -1.914062 16.09375 -2.78125 C 16.894531 -3.644531 17.296875 -4.859375 17.296875 -6.421875 Z M 17.296875 -6.421875 "/>
</symbol>
<symbol overflow="visible" id="glyph1-2">
<path style="stroke:none;" d="M 19.421875 -0.34375 C 18.941406 -0.132812 18.378906 0.0507812 17.734375 0.21875 C 17.085938 0.394531 16.40625 0.484375 15.6875 0.484375 C 14.351562 0.484375 13.375 0.289062 12.75 -0.09375 C 12.125 -0.488281 11.703125 -1.054688 11.484375 -1.796875 L 11.375 -1.796875 C 11.007812 -1.429688 10.65625 -1.117188 10.3125 -0.859375 C 9.976562 -0.597656 9.617188 -0.375 9.234375 -0.1875 C 8.722656 0.0390625 8.234375 0.210938 7.765625 0.328125 C 7.296875 0.441406 6.640625 0.5 5.796875 0.5 C 4.546875 0.5 3.476562 0.128906 2.59375 -0.609375 C 1.71875 -1.347656 1.28125 -2.328125 1.28125 -3.546875 C 1.28125 -4.242188 1.375 -4.835938 1.5625 -5.328125 C 1.757812 -5.816406 2.035156 -6.25 2.390625 -6.625 C 2.710938 -6.96875 3.085938 -7.253906 3.515625 -7.484375 C 3.941406 -7.710938 4.410156 -7.921875 4.921875 -8.109375 C 5.890625 -8.472656 7.050781 -8.84375 8.40625 -9.21875 C 9.757812 -9.601562 10.75 -9.945312 11.375 -10.25 L 11.375 -11.796875 C 11.375 -12.066406 11.351562 -12.421875 11.3125 -12.859375 C 11.269531 -13.304688 11.179688 -13.679688 11.046875 -13.984375 C 10.890625 -14.328125 10.648438 -14.617188 10.328125 -14.859375 C 10.003906 -15.097656 9.578125 -15.21875 9.046875 -15.21875 C 8.578125 -15.21875 8.179688 -15.148438 7.859375 -15.015625 C 7.546875 -14.878906 7.289062 -14.738281 7.09375 -14.59375 C 7.125 -14.382812 7.210938 -14.054688 7.359375 -13.609375 C 7.515625 -13.171875 7.59375 -12.742188 7.59375 -12.328125 C 7.59375 -12.148438 7.546875 -11.921875 7.453125 -11.640625 C 7.359375 -11.367188 7.21875 -11.15625 7.03125 -11 C 6.78125 -10.78125 6.5 -10.609375 6.1875 -10.484375 C 5.882812 -10.367188 5.414062 -10.3125 4.78125 -10.3125 C 3.875 -10.3125 3.1875 -10.53125 2.71875 -10.96875 C 2.257812 -11.40625 2.03125 -11.972656 2.03125 -12.671875 C 2.03125 -13.273438 2.269531 -13.816406 2.75 -14.296875 C 3.226562 -14.773438 3.816406 -15.171875 4.515625 -15.484375 C 5.191406 -15.804688 5.972656 -16.054688 6.859375 -16.234375 C 7.742188 -16.410156 8.5625 -16.5 9.3125 -16.5 C 10.351562 -16.5 11.3125 -16.4375 12.1875 -16.3125 C 13.0625 -16.195312 13.847656 -15.941406 14.546875 -15.546875 C 15.210938 -15.171875 15.742188 -14.625 16.140625 -13.90625 C 16.535156 -13.195312 16.734375 -12.265625 16.734375 -11.109375 C 16.734375 -9.890625 16.707031 -8.441406 16.65625 -6.765625 C 16.613281 -5.097656 16.59375 -4 16.59375 -3.46875 C 16.59375 -2.988281 16.664062 -2.609375 16.8125 -2.328125 C 16.957031 -2.046875 17.175781 -1.835938 17.46875 -1.703125 C 17.65625 -1.609375 17.945312 -1.550781 18.34375 -1.53125 C 18.738281 -1.519531 19.097656 -1.515625 19.421875 -1.515625 Z M 11.375 -8.765625 C 10.769531 -8.554688 10.171875 -8.316406 9.578125 -8.046875 C 8.992188 -7.785156 8.507812 -7.507812 8.125 -7.21875 C 7.726562 -6.925781 7.414062 -6.546875 7.1875 -6.078125 C 6.96875 -5.609375 6.859375 -5.050781 6.859375 -4.40625 C 6.859375 -3.570312 7.046875 -2.960938 7.421875 -2.578125 C 7.804688 -2.203125 8.28125 -2.015625 8.84375 -2.015625 C 9.4375 -2.015625 9.921875 -2.132812 10.296875 -2.375 C 10.679688 -2.625 11.019531 -2.925781 11.3125 -3.28125 Z M 11.375 -8.765625 "/>
</symbol>
<symbol overflow="visible" id="glyph1-3">
<path style="stroke:none;" d="M 10.171875 0.515625 C 8.671875 0.515625 7.347656 0.296875 6.203125 -0.140625 C 5.054688 -0.578125 4.109375 -1.171875 3.359375 -1.921875 C 2.617188 -2.691406 2.0625 -3.597656 1.6875 -4.640625 C 1.320312 -5.679688 1.140625 -6.816406 1.140625 -8.046875 C 1.140625 -9.171875 1.363281 -10.238281 1.8125 -11.25 C 2.257812 -12.257812 2.867188 -13.148438 3.640625 -13.921875 C 4.421875 -14.703125 5.394531 -15.328125 6.5625 -15.796875 C 7.738281 -16.265625 9.03125 -16.5 10.4375 -16.5 C 12.425781 -16.5 13.992188 -16.125 15.140625 -15.375 C 16.296875 -14.632812 16.875 -13.625 16.875 -12.34375 C 16.875 -11.570312 16.671875 -10.945312 16.265625 -10.46875 C 15.859375 -10 15.148438 -9.765625 14.140625 -9.765625 C 13.335938 -9.765625 12.660156 -9.957031 12.109375 -10.34375 C 11.566406 -10.726562 11.296875 -11.234375 11.296875 -11.859375 C 11.296875 -12.390625 11.378906 -12.910156 11.546875 -13.421875 C 11.722656 -13.941406 11.828125 -14.335938 11.859375 -14.609375 C 11.742188 -14.804688 11.59375 -14.957031 11.40625 -15.0625 C 11.226562 -15.164062 10.945312 -15.21875 10.5625 -15.21875 C 10.070312 -15.21875 9.628906 -15.101562 9.234375 -14.875 C 8.835938 -14.644531 8.460938 -14.242188 8.109375 -13.671875 C 7.773438 -13.140625 7.507812 -12.421875 7.3125 -11.515625 C 7.113281 -10.609375 7.015625 -9.519531 7.015625 -8.25 C 7.015625 -6.332031 7.460938 -4.785156 8.359375 -3.609375 C 9.265625 -2.429688 10.34375 -1.84375 11.59375 -1.84375 C 12.789062 -1.84375 13.738281 -2.109375 14.4375 -2.640625 C 15.144531 -3.171875 15.773438 -3.929688 16.328125 -4.921875 L 17.546875 -4.078125 C 17.210938 -3.421875 16.8125 -2.816406 16.34375 -2.265625 C 15.882812 -1.722656 15.328125 -1.242188 14.671875 -0.828125 C 13.992188 -0.378906 13.304688 -0.046875 12.609375 0.171875 C 11.910156 0.398438 11.097656 0.515625 10.171875 0.515625 Z M 10.171875 0.515625 "/>
</symbol>
<symbol overflow="visible" id="glyph1-4">
<path style="stroke:none;" d="M 21.671875 0 L 14.0625 0 C 13.125 -1.644531 12.265625 -3.039062 11.484375 -4.1875 C 10.710938 -5.34375 9.984375 -6.410156 9.296875 -7.390625 L 8.328125 -6.5625 L 8.328125 -3.046875 C 8.328125 -2.648438 8.382812 -2.328125 8.5 -2.078125 C 8.613281 -1.835938 8.832031 -1.65625 9.15625 -1.53125 C 9.34375 -1.445312 9.566406 -1.375 9.828125 -1.3125 C 10.085938 -1.25 10.347656 -1.207031 10.609375 -1.1875 L 10.609375 0 L 0.59375 0 L 0.59375 -1.1875 C 0.863281 -1.207031 1.132812 -1.234375 1.40625 -1.265625 C 1.675781 -1.304688 1.914062 -1.359375 2.125 -1.421875 C 2.46875 -1.535156 2.695312 -1.71875 2.8125 -1.96875 C 2.9375 -2.21875 3 -2.539062 3 -2.9375 L 3 -20.96875 C 3 -21.320312 2.921875 -21.691406 2.765625 -22.078125 C 2.609375 -22.460938 2.378906 -22.75 2.078125 -22.9375 C 1.878906 -23.070312 1.570312 -23.179688 1.15625 -23.265625 C 0.75 -23.347656 0.378906 -23.398438 0.046875 -23.421875 L 0.046875 -24.609375 L 8.078125 -25.03125 L 8.328125 -24.765625 L 8.328125 -8.078125 C 9.117188 -8.796875 10.015625 -9.625 11.015625 -10.5625 C 12.015625 -11.5 12.816406 -12.273438 13.421875 -12.890625 C 13.773438 -13.253906 13.96875 -13.53125 14 -13.71875 C 14.039062 -13.90625 14.0625 -14.019531 14.0625 -14.0625 C 14.0625 -14.257812 13.890625 -14.421875 13.546875 -14.546875 C 13.210938 -14.679688 12.707031 -14.796875 12.03125 -14.890625 L 12.03125 -16.03125 L 20.234375 -16.03125 L 20.234375 -14.921875 C 19.160156 -14.617188 18.335938 -14.332031 17.765625 -14.0625 C 17.203125 -13.800781 16.585938 -13.453125 15.921875 -13.015625 C 15.484375 -12.722656 15.054688 -12.414062 14.640625 -12.09375 C 14.222656 -11.78125 13.742188 -11.382812 13.203125 -10.90625 C 14.265625 -9.375 15.238281 -7.957031 16.125 -6.65625 C 17.019531 -5.351562 17.960938 -3.972656 18.953125 -2.515625 C 19.285156 -2.015625 19.695312 -1.675781 20.1875 -1.5 C 20.6875 -1.332031 21.179688 -1.226562 21.671875 -1.1875 Z M 21.671875 0 "/>
</symbol>
<symbol overflow="visible" id="glyph1-5">
<path style="stroke:none;" d="M 22.625 -17.203125 C 22.625 -15.910156 22.351562 -14.796875 21.8125 -13.859375 C 21.28125 -12.929688 20.546875 -12.175781 19.609375 -11.59375 C 18.640625 -10.988281 17.53125 -10.550781 16.28125 -10.28125 C 15.039062 -10.007812 13.644531 -9.875 12.09375 -9.875 L 10.21875 -9.875 L 10.21875 -3.421875 C 10.21875 -3.035156 10.289062 -2.695312 10.4375 -2.40625 C 10.582031 -2.125 10.859375 -1.898438 11.265625 -1.734375 C 11.484375 -1.640625 11.832031 -1.546875 12.3125 -1.453125 C 12.800781 -1.359375 13.210938 -1.296875 13.546875 -1.265625 L 13.546875 0 L 1.109375 0 L 1.109375 -1.265625 C 1.421875 -1.296875 1.835938 -1.335938 2.359375 -1.390625 C 2.878906 -1.453125 3.238281 -1.523438 3.4375 -1.609375 C 3.863281 -1.785156 4.144531 -2 4.28125 -2.25 C 4.414062 -2.5 4.484375 -2.84375 4.484375 -3.28125 L 4.484375 -19.46875 C 4.484375 -19.84375 4.414062 -20.164062 4.28125 -20.4375 C 4.15625 -20.71875 3.875 -20.945312 3.4375 -21.125 C 3.132812 -21.257812 2.734375 -21.375 2.234375 -21.46875 C 1.734375 -21.570312 1.359375 -21.640625 1.109375 -21.671875 L 1.109375 -22.9375 L 13.78125 -22.9375 C 16.738281 -22.9375 18.953125 -22.460938 20.421875 -21.515625 C 21.890625 -20.578125 22.625 -19.140625 22.625 -17.203125 Z M 16.3125 -16.375 C 16.3125 -18.101562 15.960938 -19.382812 15.265625 -20.21875 C 14.578125 -21.050781 13.34375 -21.46875 11.5625 -21.46875 L 10.21875 -21.46875 L 10.21875 -11.390625 L 10.890625 -11.390625 C 12.660156 -11.390625 14.003906 -11.796875 14.921875 -12.609375 C 15.847656 -13.429688 16.3125 -14.6875 16.3125 -16.375 Z M 16.3125 -16.375 "/>
</symbol>
<symbol overflow="visible" id="glyph1-6">
<path style="stroke:none;" d="M 17.4375 -14.125 C 18.238281 -13.382812 18.847656 -12.492188 19.265625 -11.453125 C 19.691406 -10.421875 19.90625 -9.300781 19.90625 -8.09375 C 19.90625 -6.90625 19.695312 -5.78125 19.28125 -4.71875 C 18.863281 -3.65625 18.253906 -2.742188 17.453125 -1.984375 C 16.609375 -1.179688 15.59375 -0.5625 14.40625 -0.125 C 13.226562 0.300781 11.878906 0.515625 10.359375 0.515625 C 9.046875 0.515625 7.835938 0.328125 6.734375 -0.046875 C 5.628906 -0.421875 4.648438 -0.988281 3.796875 -1.75 C 2.984375 -2.46875 2.335938 -3.359375 1.859375 -4.421875 C 1.378906 -5.484375 1.140625 -6.671875 1.140625 -7.984375 C 1.140625 -9.273438 1.347656 -10.425781 1.765625 -11.4375 C 2.179688 -12.445312 2.804688 -13.34375 3.640625 -14.125 C 4.429688 -14.882812 5.410156 -15.46875 6.578125 -15.875 C 7.753906 -16.289062 9.066406 -16.5 10.515625 -16.5 C 12.015625 -16.5 13.335938 -16.289062 14.484375 -15.875 C 15.640625 -15.46875 16.625 -14.882812 17.4375 -14.125 Z M 13.3125 -2.921875 C 13.539062 -3.523438 13.710938 -4.257812 13.828125 -5.125 C 13.941406 -5.988281 14 -6.988281 14 -8.125 C 14 -8.882812 13.941406 -9.75 13.828125 -10.71875 C 13.722656 -11.6875 13.566406 -12.453125 13.359375 -13.015625 C 13.097656 -13.691406 12.738281 -14.222656 12.28125 -14.609375 C 11.820312 -15.003906 11.242188 -15.203125 10.546875 -15.203125 C 9.773438 -15.203125 9.160156 -14.988281 8.703125 -14.5625 C 8.242188 -14.144531 7.890625 -13.601562 7.640625 -12.9375 C 7.421875 -12.320312 7.265625 -11.597656 7.171875 -10.765625 C 7.085938 -9.941406 7.046875 -9.085938 7.046875 -8.203125 C 7.046875 -7.023438 7.082031 -6.050781 7.15625 -5.28125 C 7.238281 -4.507812 7.425781 -3.734375 7.71875 -2.953125 C 7.957031 -2.285156 8.304688 -1.757812 8.765625 -1.375 C 9.234375 -0.988281 9.828125 -0.796875 10.546875 -0.796875 C 11.191406 -0.796875 11.742188 -0.972656 12.203125 -1.328125 C 12.671875 -1.691406 13.039062 -2.222656 13.3125 -2.921875 Z M 13.3125 -2.921875 "/>
</symbol>
<symbol overflow="visible" id="glyph1-7">
<path style="stroke:none;" d="M 18.3125 -3.859375 C 17.9375 -3.242188 17.484375 -2.664062 16.953125 -2.125 C 16.421875 -1.582031 15.8125 -1.117188 15.125 -0.734375 C 14.40625 -0.316406 13.675781 -0.00390625 12.9375 0.203125 C 12.195312 0.410156 11.347656 0.515625 10.390625 0.515625 C 8.796875 0.515625 7.421875 0.289062 6.265625 -0.15625 C 5.109375 -0.613281 4.148438 -1.222656 3.390625 -1.984375 C 2.640625 -2.753906 2.078125 -3.65625 1.703125 -4.6875 C 1.328125 -5.726562 1.140625 -6.859375 1.140625 -8.078125 C 1.140625 -9.179688 1.34375 -10.234375 1.75 -11.234375 C 2.15625 -12.242188 2.726562 -13.144531 3.46875 -13.9375 C 4.207031 -14.695312 5.132812 -15.3125 6.25 -15.78125 C 7.363281 -16.257812 8.609375 -16.5 9.984375 -16.5 C 11.492188 -16.5 12.734375 -16.316406 13.703125 -15.953125 C 14.679688 -15.585938 15.488281 -15.082031 16.125 -14.4375 C 16.738281 -13.820312 17.179688 -13.097656 17.453125 -12.265625 C 17.734375 -11.429688 17.875 -10.554688 17.875 -9.640625 L 17.875 -8.578125 L 6.953125 -8.578125 C 6.953125 -6.367188 7.375 -4.6875 8.21875 -3.53125 C 9.070312 -2.382812 10.425781 -1.8125 12.28125 -1.8125 C 13.300781 -1.8125 14.210938 -2.085938 15.015625 -2.640625 C 15.828125 -3.191406 16.519531 -3.894531 17.09375 -4.75 Z M 12.140625 -10 C 12.140625 -10.65625 12.109375 -11.320312 12.046875 -12 C 11.984375 -12.675781 11.867188 -13.226562 11.703125 -13.65625 C 11.523438 -14.164062 11.273438 -14.550781 10.953125 -14.8125 C 10.628906 -15.070312 10.226562 -15.203125 9.75 -15.203125 C 8.914062 -15.203125 8.25 -14.78125 7.75 -13.9375 C 7.257812 -13.09375 6.992188 -11.757812 6.953125 -9.9375 Z M 12.140625 -10 "/>
</symbol>
<symbol overflow="visible" id="glyph1-8">
<path style="stroke:none;" d="M 12.96875 -0.75 C 12.28125 -0.445312 11.539062 -0.175781 10.75 0.0625 C 9.96875 0.3125 9.007812 0.4375 7.875 0.4375 C 6.1875 0.4375 4.9375 0.03125 4.125 -0.78125 C 3.3125 -1.601562 2.90625 -2.773438 2.90625 -4.296875 L 2.90625 -14.234375 L 0 -14.234375 L 0 -15.96875 L 2.96875 -15.96875 L 2.96875 -20.875 L 8.234375 -20.875 L 8.234375 -15.96875 L 12.75 -15.96875 L 12.75 -14.234375 L 8.265625 -14.234375 L 8.265625 -5.375 C 8.265625 -4.101562 8.4375 -3.203125 8.78125 -2.671875 C 9.132812 -2.148438 9.765625 -1.890625 10.671875 -1.890625 C 10.960938 -1.890625 11.363281 -1.910156 11.875 -1.953125 C 12.394531 -1.992188 12.757812 -2.046875 12.96875 -2.109375 Z M 12.96875 -0.75 "/>
</symbol>
<symbol overflow="visible" id="glyph2-0">
<path style="stroke:none;" d="M 6.1875 -6.6875 L 13.140625 0.359375 L 17.484375 -4 L 14.171875 -7.3125 L 17.484375 -10.65625 L 14.171875 -13.96875 L 17.484375 -17.3125 L 10.5 -24.328125 L 6.1875 -20 L 9.46875 -16.65625 L 6.1875 -13.34375 L 9.46875 -10 Z M 6.1875 -6.6875 "/>
</symbol>
<symbol overflow="visible" id="glyph2-1">
<path style="stroke:none;" d="M 4.671875 0.4375 C 7.609375 0.4375 9.859375 -2.28125 11.515625 -5.953125 C 12.8125 -8.84375 13.8125 -12.484375 14.5 -15.859375 L 14.5625 -15.859375 C 14.46875 -11.453125 15.171875 -8.015625 17.546875 -8.015625 C 19.9375 -8.015625 21.921875 -11.453125 23.3125 -15.171875 L 23.375 -15.171875 C 22.875 -12.28125 22.421875 -9.265625 22.421875 -6.421875 C 22.421875 -2.21875 23.4375 0.796875 25.890625 0.796875 C 28.140625 0.796875 30.53125 -1.828125 31.921875 -10.09375 L 31.125 -10.203125 C 29.890625 -3.109375 28.109375 -0.796875 26.859375 -0.796875 C 25.53125 -0.796875 25.203125 -3.40625 25.203125 -5.53125 C 25.203125 -9.265625 26.21875 -15.5625 27.28125 -20.984375 C 27.671875 -23.015625 27.9375 -24.109375 27.9375 -24.5 C 27.9375 -24.828125 27.75 -25 27.375 -25 C 26.921875 -25 25.953125 -24.671875 24.96875 -24.109375 C 24.40625 -21.78125 23.84375 -19.640625 23.3125 -17.875 C 21.546875 -12.34375 19.796875 -9.796875 18.578125 -9.796875 C 17.515625 -9.796875 17.015625 -11.6875 17.015625 -15.203125 C 17.015625 -17.421875 17.21875 -19.9375 17.375 -21.8125 C 17.484375 -23.015625 17.546875 -24.078125 17.546875 -24.375 C 17.546875 -24.859375 17.3125 -25 17.015625 -25 C 16.515625 -25 15.46875 -24.640625 14.46875 -24 C 14.265625 -18.546875 12.1875 -10.734375 9.5625 -6.0625 C 7.8125 -2.953125 6.125 -1.71875 4.40625 -1.71875 C 2.84375 -1.71875 1.859375 -2.71875 1.390625 -3.78125 L 0.859375 -3.546875 C 1.125 -1.21875 2.390625 0.4375 4.671875 0.4375 Z M 4.671875 0.4375 "/>
</symbol>
<symbol overflow="visible" id="glyph2-2">
<path style="stroke:none;" d="M 1.0625 -5.734375 C 1.0625 -1.921875 3.46875 0.359375 6.1875 0.359375 C 8.8125 0.359375 10.828125 -1.75 11.859375 -3.96875 C 14.171875 -3.96875 16.953125 -5.265625 17.546875 -10.09375 L 16.75 -10.203125 C 16.25 -6.6875 14.46875 -5.328125 12.34375 -5.234375 C 12.71875 -6.328125 12.90625 -7.515625 12.90625 -8.703125 C 12.90625 -12.578125 10.796875 -14.234375 8.9375 -14.234375 C 7.15625 -14.234375 5.65625 -12.6875 5.65625 -10.171875 C 5.65625 -7.15625 7.78125 -4.796875 10.390625 -4.171875 C 9.859375 -2.515625 8.78125 -1.0625 7.1875 -1.0625 C 4.96875 -1.0625 3.578125 -3.875 3.578125 -6.921875 C 3.578125 -8.84375 4.140625 -11.03125 5.296875 -11.921875 L 4.96875 -12.484375 C 2.515625 -11.328125 1.0625 -8.671875 1.0625 -5.734375 Z M 10.6875 -5.4375 C 8.40625 -6.0625 6.71875 -8.140625 6.71875 -10.328125 C 6.71875 -11.359375 7.125 -12.609375 8.078125 -12.609375 C 9.5 -12.609375 10.859375 -10 10.859375 -7.125 C 10.859375 -6.484375 10.796875 -5.953125 10.6875 -5.4375 Z M 10.6875 -5.4375 "/>
</symbol>
<symbol overflow="visible" id="glyph2-3">
<path style="stroke:none;" d="M 3.40625 0.234375 C 3.734375 0.234375 4.375 0.03125 5.03125 -0.328125 C 5.171875 -2.578125 5.59375 -5.234375 6.484375 -7.609375 C 7.25 -9.640625 8.734375 -12.390625 10.234375 -12.390625 C 10.796875 -12.390625 11.0625 -12.015625 11.0625 -11.390625 C 11.0625 -10.359375 10.125 -7.1875 10.125 -4.046875 C 10.125 -2.015625 10.6875 0.234375 11.8125 0.234375 C 12.1875 0.234375 12.71875 0 13.3125 -0.46875 C 13.40625 -2.8125 13.8125 -5.265625 14.640625 -7.609375 C 15.296875 -9.46875 16.78125 -12.421875 18.3125 -12.421875 C 18.90625 -12.421875 19.203125 -12.015625 19.203125 -11.390625 C 19.203125 -10.359375 18.28125 -7.640625 18.28125 -5 C 18.28125 -1.296875 19.9375 0.265625 21.71875 0.265625 C 23.703125 0.265625 25.796875 -1.75 27.25 -10.09375 L 26.453125 -10.203125 C 25.234375 -3.28125 23.609375 -1.03125 22.453125 -1.03125 C 21.453125 -1.03125 20.859375 -2.65625 20.859375 -4.96875 C 20.859375 -7.609375 21.65625 -10.0625 22.109375 -12.25 C 21.453125 -13.171875 20.421875 -13.875 19.078125 -14.140625 C 16.890625 -13.875 15 -11.515625 13.84375 -8.109375 C 13.40625 -6.859375 12.984375 -5.4375 12.75 -3.703125 L 12.640625 -3.703125 C 12.609375 -3.96875 12.609375 -4.265625 12.609375 -4.53125 C 12.609375 -7.1875 13.4375 -9.796875 13.9375 -12.25 C 13.25 -13.171875 12.25 -13.875 11 -14.140625 C 8.84375 -13.8125 7.125 -11.59375 5.953125 -8.734375 C 5.328125 -7.21875 4.9375 -5.65625 4.703125 -4.40625 L 4.609375 -4.40625 C 4.640625 -5.328125 4.765625 -6.71875 4.9375 -7.84375 C 5.265625 -10.203125 5.859375 -12.515625 5.859375 -13.28125 C 5.859375 -13.734375 5.65625 -14 5.265625 -14 C 4.734375 -14 3.703125 -13.578125 3.140625 -13.203125 C 2.84375 -10.03125 2.046875 -6.78125 2.046875 -3.703125 C 2.046875 -2.1875 2.25 0.234375 3.40625 0.234375 Z M 3.40625 0.234375 "/>
</symbol>
</g>
<clipPath id="clip2">
  <path d="M 287 2 L 292.128906 2 L 292.128906 7 L 287 7 Z M 287 2 "/>
</clipPath>
<clipPath id="clip1">
  <rect x="0" y="0" width="293" height="19"/>
</clipPath>
<g id="surface5" clip-path="url(#clip1)">
<g style="fill:rgb(54.510498%,43.528748%,34.509277%);fill-opacity:1;">
  <use xlink:href="#glyph0-1" x="0.8369" y="13.5908"/>
  <use xlink:href="#glyph0-2" x="7.058594" y="13.5908"/>
  <use xlink:href="#glyph0-3" x="16.406237" y="13.5908"/>
</g>
<g style="fill:rgb(54.510498%,43.528748%,34.509277%);fill-opacity:1;">
  <use xlink:href="#glyph0-4" x="24.900662" y="13.5908"/>
  <use xlink:href="#glyph0-5" x="32.028429" y="13.5908"/>
  <use xlink:href="#glyph0-6" x="35.667818" y="13.5908"/>
  <use xlink:href="#glyph0-7" x="42.523763" y="13.5908"/>
  <use xlink:href="#glyph0-8" x="51.17675" y="13.5908"/>
  <use xlink:href="#glyph0-9" x="55.480592" y="13.5908"/>
  <use xlink:href="#glyph0-10" x="68.754547" y="13.5908"/>
</g>
<g style="fill:rgb(54.510498%,43.528748%,34.509277%);fill-opacity:1;">
  <use xlink:href="#glyph0-5" x="72.82432" y="13.5908"/>
  <use xlink:href="#glyph0-11" x="76.46371" y="13.5908"/>
  <use xlink:href="#glyph0-12" x="88.876896" y="13.5908"/>
  <use xlink:href="#glyph0-13" x="93.361952" y="13.5908"/>
  <use xlink:href="#glyph0-4" x="99.87057" y="13.5908"/>
  <use xlink:href="#glyph0-5" x="106.998336" y="13.5908"/>
  <use xlink:href="#glyph0-9" x="110.637725" y="13.5908"/>
  <use xlink:href="#glyph0-14" x="123.91168" y="13.5908"/>
  <use xlink:href="#glyph0-9" x="132.021024" y="13.5908"/>
  <use xlink:href="#glyph0-5" x="145.294979" y="13.5908"/>
  <use xlink:href="#glyph0-12" x="148.934368" y="13.5908"/>
  <use xlink:href="#glyph0-15" x="153.419425" y="13.5908"/>
  <use xlink:href="#glyph0-5" x="162.329133" y="13.5908"/>
  <use xlink:href="#glyph0-16" x="165.968522" y="13.5908"/>
  <use xlink:href="#glyph0-14" x="174.425194" y="13.5908"/>
  <use xlink:href="#glyph0-17" x="182.534538" y="13.5908"/>
  <use xlink:href="#glyph0-18" x="191.217728" y="13.5908"/>
  <use xlink:href="#glyph0-5" x="198.179382" y="13.5908"/>
  <use xlink:href="#glyph0-19" x="201.818771" y="13.5908"/>
  <use xlink:href="#glyph0-7" x="210.184836" y="13.5908"/>
  <use xlink:href="#glyph0-6" x="218.837823" y="13.5908"/>
  <use xlink:href="#glyph0-20" x="225.693768" y="13.5908"/>
  <use xlink:href="#glyph0-5" x="233.667202" y="13.5908"/>
  <use xlink:href="#glyph0-21" x="237.306591" y="13.5908"/>
  <use xlink:href="#glyph0-14" x="246.035084" y="13.5908"/>
  <use xlink:href="#glyph0-6" x="254.144429" y="13.5908"/>
  <use xlink:href="#glyph0-20" x="261.000374" y="13.5908"/>
  <use xlink:href="#glyph0-4" x="268.973807" y="13.5908"/>
  <use xlink:href="#glyph0-22" x="276.101574" y="13.5908"/>
  <use xlink:href="#glyph0-23" x="281.34169" y="13.5908"/>
</g>
<g clip-path="url(#clip2)" clip-rule="nonzero">
<g style="fill:rgb(54.510498%,43.528748%,34.509277%);fill-opacity:1;">
  <use xlink:href="#glyph0-1" x="285.411463" y="13.5908"/>
</g>
</g>
</g>
<clipPath id="clip4">
  <path d="M 1 3 L 198.929688 3 L 198.929688 30 L 1 30 Z M 1 3 "/>
</clipPath>
<clipPath id="clip3">
  <rect x="0" y="0" width="199" height="39"/>
</clipPath>
<g id="surface8" clip-path="url(#clip3)">
<g clip-path="url(#clip4)" clip-rule="nonzero">
<g style="fill:rgb(36.077881%,23.921204%,18.03894%);fill-opacity:1;">
  <use xlink:href="#glyph1-1" x="0.7861" y="28.5068"/>
  <use xlink:href="#glyph1-2" x="25.846434" y="28.5068"/>
  <use xlink:href="#glyph1-3" x="45.576894" y="28.5068"/>
  <use xlink:href="#glyph1-4" x="63.155543" y="28.5068"/>
  <use xlink:href="#glyph1-5" x="84.077777" y="28.5068"/>
  <use xlink:href="#glyph1-6" x="107.284242" y="28.5068"/>
  <use xlink:href="#glyph1-3" x="128.338894" y="28.5068"/>
  <use xlink:href="#glyph1-4" x="145.917543" y="28.5068"/>
  <use xlink:href="#glyph1-7" x="166.839777" y="28.5068"/>
  <use xlink:href="#glyph1-8" x="185.775722" y="28.5068"/>
</g>
</g>
</g>
<clipPath id="clip6">
  <path d="M 1 2 L 70.179688 2 L 70.179688 29 L 1 29 Z M 1 2 "/>
</clipPath>
<clipPath id="clip5">
  <rect x="0" y="0" width="71" height="40"/>
</clipPath>
<g id="surface11" clip-path="url(#clip5)">
<g clip-path="url(#clip6)" clip-rule="nonzero">
<g style="fill:rgb(90.98053%,65.882874%,48.626709%);fill-opacity:1;">
  <use xlink:href="#glyph2-1" x="0.5928" y="27.958"/>
  <use xlink:href="#glyph2-2" x="28.930509" y="27.958"/>
  <use xlink:href="#glyph2-3" x="42.933839" y="27.958"/>
</g>
</g>
</g>
<clipPath id="clip7">
  <path d="M 285 40 L 300 40 L 300 53 L 285 53 Z M 285 40 "/>
</clipPath>
<clipPath id="clip8">
  <path d="M 292.074219 42.089844 C 290.160156 38.898438 285.058594 39.535156 285.058594 44 C 285.058594 47.828125 292.074219 52.292969 292.074219 52.292969 C 292.074219 52.292969 299.089844 47.828125 299.089844 44 C 299.089844 41.398438 297.355469 40.09375 295.527344 40.09375 C 294.222656 40.09375 292.871094 40.757812 292.074219 42.089844 "/>
</clipPath>
<linearGradient id="linear0" gradientUnits="userSpaceOnUse" x1="-0.0490149" y1="0" x2="1.000039" y2="0" gradientTransform="matrix(14.031988,12.198262,14.031988,-12.198262,286.160309,39.136406)">
<stop offset="0" style="stop-color:rgb(94.117737%,70.980835%,53.726196%);stop-opacity:1;"/>
<stop offset="0.0625" style="stop-color:rgb(94.117737%,70.980835%,53.726196%);stop-opacity:1;"/>
<stop offset="0.125" style="stop-color:rgb(94.117737%,70.588684%,53.334045%);stop-opacity:1;"/>
<stop offset="0.1875" style="stop-color:rgb(93.725586%,70.588684%,53.334045%);stop-opacity:1;"/>
<stop offset="0.25" style="stop-color:rgb(93.725586%,70.196533%,52.941895%);stop-opacity:1;"/>
<stop offset="0.3125" style="stop-color:rgb(93.333435%,69.804382%,52.549744%);stop-opacity:1;"/>
<stop offset="0.375" style="stop-color:rgb(93.333435%,69.412231%,52.157593%);stop-opacity:1;"/>
<stop offset="0.4375" style="stop-color:rgb(92.941284%,69.020081%,51.765442%);stop-opacity:1;"/>
<stop offset="0.5" style="stop-color:rgb(92.549133%,68.62793%,51.373291%);stop-opacity:1;"/>
<stop offset="0.5625" style="stop-color:rgb(92.549133%,68.235779%,50.98114%);stop-opacity:1;"/>
<stop offset="0.625" style="stop-color:rgb(92.156982%,68.235779%,50.98114%);stop-opacity:1;"/>
<stop offset="0.6875" style="stop-color:rgb(92.156982%,67.843628%,50.588989%);stop-opacity:1;"/>
<stop offset="0.75" style="stop-color:rgb(91.764832%,67.451477%,50.196838%);stop-opacity:1;"/>
<stop offset="0.8125" style="stop-color:rgb(91.764832%,67.059326%,49.803162%);stop-opacity:1;"/>
<stop offset="0.875" style="stop-color:rgb(91.372681%,66.667175%,49.411011%);stop-opacity:1;"/>
<stop offset="0.9375" style="stop-color:rgb(91.372681%,66.275024%,49.01886%);stop-opacity:1;"/>
<stop offset="1" style="stop-color:rgb(90.98053%,65.882874%,48.626709%);stop-opacity:1;"/>
</linearGradient>
</defs>
<g id="surface1">
<use xlink:href="#surface5" transform="matrix(1,0,0,1,76,86)"/>
<use xlink:href="#surface8" transform="matrix(1,0,0,1,87,41)"/>
<use xlink:href="#surface11" transform="matrix(1,0,0,1,287,42)"/>
<g clip-path="url(#clip7)" clip-rule="nonzero">
<g clip-path="url(#clip8)" clip-rule="nonzero">
<path style=" stroke:none;fill-rule:nonzero;fill:url(#linear0);" d="M 277.355469 45.59375 L 292.074219 32.800781 L 306.796875 45.59375 L 292.074219 58.390625 Z M 277.355469 45.59375 "/>
</g>
</g>
<path style="fill:none;stroke-width:1.655;stroke-linecap:butt;stroke-linejoin:miter;stroke:rgb(90.98053%,65.882874%,48.626709%);stroke-opacity:1;stroke-miterlimit:4;" d="M -0.0002875 -0.00036875 L 220.698931 -0.00036875 " transform="matrix(1,0,0,-1,112.1331,78.4176)"/>
</g>
</svg>
