<svg xmlns="http://www.w3.org/2000/svg" viewBox="0 0 1240 360" role="img" aria-labelledby="title desc">
  <title id="title">BackPocket Mom logo without tagline</title>
  <desc id="desc">A warm pocket-shaped mark with a heart and check, paired with the BackPocket Mom wordmark.</desc>
  <defs>
    <style>
      .sans { font-family: "Segoe UI"; }
      .serif { font-family: "Georgia"; }
    </style>
    <filter id="softShadow" x="-20%" y="-20%" width="140%" height="140%">
      <feDropShadow dx="0" dy="12" stdDeviation="12" flood-color="#2D2320" flood-opacity="0.15"/>
    </filter>
  </defs>

  <g transform="translate(64 32) scale(.84)" filter="url(#softShadow)">
    <path d="M54 42C54 18 72 0 96 0H294C318 0 336 18 336 42V202C336 268 286 317 195 352C104 317 54 268 54 202V42Z" fill="#2D2320"/>
    <path d="M82 52H308V104C274 119 238 126 195 126C152 126 116 119 82 104V52Z" fill="#E8A87C"/>
    <path d="M96 138C96 124 107 113 121 113H269C283 113 294 124 294 138V200C294 248 259 283 195 309C131 283 96 248 96 200V138Z" fill="#F5ECD7"/>
    <path d="M126 151C126 143 132 137 140 137H250C258 137 264 143 264 151V193C264 228 239 254 195 272C151 254 126 228 126 193V151Z" fill="#2D2320"/>
    <path d="M151 180C151 157 180 151 195 172C210 151 239 157 239 180C239 205 210 218 195 236C180 218 151 205 151 180Z" fill="#D4537E"/>
    <path d="M169 196L188 215L226 174" fill="none" stroke="#7BAF83" stroke-width="16" stroke-linecap="round" stroke-linejoin="round"/>
    <path d="M88 86C124 104 158 113 195 113C232 113 266 104 302 86" fill="none" stroke="#F5ECD7" stroke-width="8" stroke-linecap="round" stroke-dasharray="3 21"/>
  </g>

  <g transform="translate(408 118)">
    <text class="sans" x="0" y="74" font-size="82" font-weight="500" fill="#2D2320" letter-spacing="0">BackPocket</text>
    <text class="serif" x="522" y="74" font-size="91" font-weight="700" fill="#D4537E" letter-spacing="0">Mom</text>
    <path d="M5 116H744" stroke="#E8A87C" stroke-width="9" stroke-linecap="round"/>
  </g>
</svg>
