<svg xmlns="http://www.w3.org/2000/svg" viewBox="0 0 1024 1024" role="img" aria-labelledby="title desc">
  <title id="title">BackPocket Mom app mark</title>
  <desc id="desc">A rounded cream app icon with a warm pocket, heart, and check symbol.</desc>
  <defs>
    <filter id="iconShadow" x="-20%" y="-20%" width="140%" height="140%">
      <feDropShadow dx="0" dy="28" stdDeviation="28" flood-color="#2D2320" flood-opacity="0.18"/>
    </filter>
  </defs>
  <rect width="1024" height="1024" rx="216" fill="#F5ECD7"/>
  <circle cx="192" cy="194" r="58" fill="#E8A87C" opacity="0.78"/>
  <circle cx="842" cy="818" r="78" fill="#7BAF83" opacity="0.45"/>
  <g transform="translate(210 142)" filter="url(#iconShadow)">
    <path d="M0 94C0 40 40 0 94 0H512C566 0 606 40 606 94V438C606 578 496 681 303 758C110 681 0 578 0 438V94Z" fill="#2D2320"/>
    <path d="M52 118H554V232C476 268 394 286 303 286C212 286 130 268 52 232V118Z" fill="#E8A87C"/>
    <path d="M98 302C98 270 124 244 156 244H450C482 244 508 270 508 302V430C508 532 434 607 303 661C172 607 98 532 98 430V302Z" fill="#F5ECD7"/>
    <path d="M158 332C158 314 172 300 190 300H416C434 300 448 314 448 332V417C448 491 396 548 303 590C210 548 158 491 158 417V332Z" fill="#2D2320"/>
    <path d="M210 393C210 337 274 326 303 372C332 326 396 337 396 393C396 449 334 481 303 526C272 481 210 449 210 393Z" fill="#D4537E"/>
    <path d="M248 429L288 469L370 378" fill="none" stroke="#7BAF83" stroke-width="38" stroke-linecap="round" stroke-linejoin="round"/>
    <path d="M70 194C146 233 222 252 303 252C384 252 460 233 536 194" fill="none" stroke="#F5ECD7" stroke-width="20" stroke-linecap="round" stroke-dasharray="8 42"/>
  </g>
</svg>
